<svg width="148" height="40" viewBox="0 0 148 40" fill="none" xmlns="http://www.w3.org/2000/svg">
<rect width="148" height="40" rx="20" fill="#FF7E44"/>
<path d="M36.9142 15.3361H33.9552V23.0361H35.6162V20.6381H36.9142C38.4652 20.6381 39.6312 19.5051 39.6312 17.9871C39.6312 16.4691 38.4542 15.3361 36.9142 15.3361ZM36.8372 19.0981H35.6162V16.8871H36.8372C37.4972 16.8871 37.9482 17.3491 37.9482 17.9871C37.9482 18.6251 37.4972 19.0981 36.8372 19.0981Z" fill="white"/>
<path d="M43.394 23.2121C45.077 23.2121 46.188 22.1341 46.188 20.5281V17.0961H44.582V20.3521C44.582 21.1881 44.142 21.6941 43.394 21.6941C42.657 21.6941 42.206 21.1991 42.206 20.3521V17.0961H40.6V20.5281C40.6 22.1341 41.722 23.2121 43.394 23.2121Z" fill="white"/>
<path d="M51.0259 16.9641C50.2229 16.9641 49.5079 17.3051 49.0569 17.8331L48.7489 17.0961H47.6489V23.0361H49.2549V19.9231C49.2549 18.9661 49.7609 18.3721 50.5859 18.3721C51.2789 18.3721 51.6199 18.8011 51.6199 19.7031V23.0361H53.2259V19.4391C53.2259 17.9321 52.3789 16.9641 51.0259 16.9641Z" fill="white"/>
<path d="M57.5568 21.6061C56.9628 21.6061 56.6328 21.2761 56.6328 20.7041V18.3941H58.2498V17.0961H56.6108V15.5561H56.3028L53.9598 18.0421V18.3941H55.0268V20.9241C55.0268 22.2331 55.8298 23.0361 57.1388 23.0361H58.2828V21.6061H57.5568Z" fill="white"/>
<path d="M62.1417 23.2121C63.9787 23.2121 65.3537 21.8591 65.3537 20.0661C65.3537 18.2731 63.9787 16.9311 62.1417 16.9311C60.3047 16.9311 58.9297 18.2731 58.9297 20.0661C58.9297 21.8591 60.3047 23.2121 62.1417 23.2121ZM62.1417 21.6941C61.2177 21.6941 60.5577 21.0341 60.5577 20.0661C60.5577 19.1091 61.2177 18.4381 62.1417 18.4381C63.0657 18.4381 63.7257 19.1091 63.7257 20.0661C63.7257 21.0341 63.0657 21.6941 62.1417 21.6941Z" fill="white"/>
<path d="M68.6132 23.2121C70.1202 23.2121 71.1102 22.4201 71.1102 21.2101C71.1102 19.7581 69.8672 19.5601 68.8992 19.3841C68.2832 19.2741 67.7772 19.1751 67.7772 18.7791C67.7772 18.4381 68.0742 18.2181 68.5692 18.2181C69.1302 18.2181 69.4602 18.4491 69.4712 18.9221H71.0002C70.9892 17.7341 70.0432 16.9311 68.6132 16.9311C67.1832 16.9311 66.2262 17.7121 66.2262 18.8341C66.2262 20.2311 67.4362 20.4841 68.3822 20.6491C69.0092 20.7481 69.5262 20.8691 69.5262 21.2761C69.5262 21.6721 69.1192 21.8811 68.6792 21.8811C68.1072 21.8811 67.7002 21.6171 67.6892 21.0891H66.1272C66.1272 22.3541 67.1282 23.2121 68.6132 23.2121Z" fill="white"/>
<path d="M77.9923 15.3361H75.0333V23.0361H76.6943V20.6381H77.9923C79.5433 20.6381 80.7093 19.5051 80.7093 17.9871C80.7093 16.4691 79.5323 15.3361 77.9923 15.3361ZM77.9153 19.0981H76.6943V16.8871H77.9153C78.5753 16.8871 79.0263 17.3491 79.0263 17.9871C79.0263 18.6251 78.5753 19.0981 77.9153 19.0981Z" fill="white"/>
<path d="M81.7661 16.3041H83.3611V14.8191H81.7661V16.3041ZM81.7661 23.0361H83.3721V17.0961H81.7661V23.0361Z" fill="white"/>
<path d="M87.6746 23.2121C89.2256 23.2121 90.4466 22.2001 90.7216 20.7041H89.1046C88.8296 21.3421 88.3236 21.6941 87.6746 21.6941C86.8166 21.6941 86.1456 20.9791 86.1456 20.0661C86.1456 19.1421 86.8056 18.4381 87.6746 18.4381C88.3126 18.4381 88.8516 18.7901 89.1046 19.3731H90.6996C90.4136 17.9101 89.2256 16.9311 87.6856 16.9311C85.8816 16.9311 84.5176 18.2731 84.5176 20.0551C84.5176 21.8371 85.8816 23.2121 87.6746 23.2121Z" fill="white"/>
<path d="M97.3876 23.0361L95.1546 19.9341L97.1676 17.0961H95.3196L93.5376 19.7361V14.9621H91.9316V23.0361H93.5376V20.1981L95.4406 23.0361H97.3876Z" fill="white"/>
<path d="M103.443 23.2121C105.126 23.2121 106.237 22.1341 106.237 20.5281V17.0961H104.631V20.3521C104.631 21.1881 104.191 21.6941 103.443 21.6941C102.706 21.6941 102.255 21.1991 102.255 20.3521V17.0961H100.649V20.5281C100.649 22.1341 101.771 23.2121 103.443 23.2121Z" fill="white"/>
<path d="M110.932 16.9311C110.195 16.9311 109.535 17.1951 109.029 17.6461L108.754 17.0961H107.698V25.1811H109.304V22.7171C109.755 23.0361 110.316 23.2231 110.932 23.2231C112.725 23.2231 114.045 21.8701 114.045 20.0661C114.045 18.2731 112.725 16.9311 110.932 16.9311ZM110.8 21.6941C109.865 21.6941 109.183 21.0011 109.183 20.0661C109.183 19.1421 109.865 18.4381 110.8 18.4381C111.735 18.4381 112.417 19.1421 112.417 20.0661C112.417 21.0011 111.735 21.6941 110.8 21.6941Z" fill="white"/>
</svg>
