<svg width="159" height="40" viewBox="0 0 159 40" fill="none" xmlns="http://www.w3.org/2000/svg">
<rect width="159" height="40" rx="20" fill="#FF7E44"/>
<path d="M23.4379 23.176C25.3409 23.176 26.8369 21.9 27.1889 19.997H25.5059C25.2309 20.965 24.4499 21.581 23.4379 21.581C22.1289 21.581 21.1499 20.547 21.1499 19.161C21.1499 17.775 22.1289 16.73 23.4379 16.73C24.4059 16.73 25.1759 17.302 25.4949 18.204H27.1559C26.8039 16.378 25.3079 15.135 23.4379 15.135C21.1719 15.135 19.4559 16.873 19.4559 19.161C19.4559 21.438 21.1719 23.176 23.4379 23.176ZM31.0992 23.176C32.9362 23.176 34.3112 21.823 34.3112 20.03C34.3112 18.237 32.9362 16.895 31.0992 16.895C29.2622 16.895 27.8872 18.237 27.8872 20.03C27.8872 21.823 29.2622 23.176 31.0992 23.176ZM31.0992 21.658C30.1752 21.658 29.5152 20.998 29.5152 20.03C29.5152 19.073 30.1752 18.402 31.0992 18.402C32.0232 18.402 32.6832 19.073 32.6832 20.03C32.6832 20.998 32.0232 21.658 31.0992 21.658ZM38.8467 16.928C38.0437 16.928 37.3287 17.269 36.8777 17.797L36.5697 17.06H35.4697V23H37.0757V19.887C37.0757 18.93 37.5817 18.336 38.4067 18.336C39.0997 18.336 39.4407 18.765 39.4407 19.667V23H41.0467V19.403C41.0467 17.896 40.1997 16.928 38.8467 16.928ZM45.3776 21.57C44.7836 21.57 44.4536 21.24 44.4536 20.668V18.358H46.0706V17.06H44.4316V15.52H44.1236L41.7806 18.006V18.358H42.8476V20.888C42.8476 22.197 43.6506 23 44.9596 23H46.1036V21.57H45.3776ZM47.2002 16.268H48.7952V14.783H47.2002V16.268ZM47.2002 23H48.8062V17.06H47.2002V23ZM53.7246 16.928C52.9216 16.928 52.2066 17.269 51.7556 17.797L51.4476 17.06H50.3476V23H51.9536V19.887C51.9536 18.93 52.4596 18.336 53.2846 18.336C53.9776 18.336 54.3186 18.765 54.3186 19.667V23H55.9246V19.403C55.9246 17.896 55.0776 16.928 53.7246 16.928ZM60.1005 23.176C61.7835 23.176 62.8945 22.098 62.8945 20.492V17.06H61.2885V20.316C61.2885 21.152 60.8485 21.658 60.1005 21.658C59.3635 21.658 58.9125 21.163 58.9125 20.316V17.06H57.3065V20.492C57.3065 22.098 58.4285 23.176 60.1005 23.176ZM69.1954 17.06L69.0304 17.621C68.5134 17.17 67.8424 16.895 67.0724 16.895C65.2904 16.895 63.9594 18.237 63.9594 20.03C63.9594 21.823 65.2904 23.176 67.0724 23.176C67.8314 23.176 68.4914 22.912 68.9974 22.461L69.1404 23H70.3944V17.06H69.1954ZM67.2044 21.658C66.2694 21.658 65.5874 20.954 65.5874 20.03C65.5874 19.095 66.2694 18.402 67.2044 18.402C68.1394 18.402 68.8214 19.095 68.8214 20.03C68.8214 20.965 68.1394 21.658 67.2044 21.658ZM74.9862 17.027C74.2162 17.027 73.6882 17.269 73.2592 17.797L72.9732 17.06H71.9502V23H73.5562V19.92C73.5562 18.952 73.9082 18.545 74.8102 18.545H75.5142V17.027H74.9862ZM83.1275 14.926V17.39C82.6655 17.071 82.1155 16.895 81.4995 16.895C79.6955 16.895 78.3755 18.237 78.3755 20.041C78.3755 21.834 79.6955 23.187 81.4995 23.187C82.2255 23.187 82.8635 22.934 83.3585 22.516L83.5455 23.011H84.7335V14.926H83.1275ZM81.6315 21.669C80.6965 21.669 80.0145 20.965 80.0145 20.041C80.0145 19.106 80.6965 18.413 81.6315 18.413C82.5665 18.413 83.2485 19.106 83.2485 20.041C83.2485 20.965 82.5665 21.669 81.6315 21.669ZM92.0443 20.019C92.0443 18.303 90.7903 16.895 88.9643 16.895C87.2043 16.895 85.8843 18.248 85.8843 20.03C85.8843 21.812 87.2153 23.176 88.9643 23.176C90.3503 23.176 91.4833 22.351 91.9123 21.053H90.2293C89.9873 21.482 89.5253 21.746 88.9643 21.746C88.1833 21.746 87.6553 21.295 87.5123 20.481H92.0113C92.0333 20.327 92.0443 20.173 92.0443 20.019ZM88.9643 18.27C89.6903 18.27 90.2073 18.666 90.4383 19.392H87.5563C87.7433 18.688 88.2493 18.27 88.9643 18.27ZM96.8774 17.06L95.4474 21.042L93.9954 17.06H92.2794L94.6994 23H96.1844L98.5384 17.06H96.8774ZM102.008 23.176C103.845 23.176 105.22 21.823 105.22 20.03C105.22 18.237 103.845 16.895 102.008 16.895C100.171 16.895 98.7964 18.237 98.7964 20.03C98.7964 21.823 100.171 23.176 102.008 23.176ZM102.008 21.658C101.084 21.658 100.424 20.998 100.424 20.03C100.424 19.073 101.084 18.402 102.008 18.402C102.932 18.402 103.592 19.073 103.592 20.03C103.592 20.998 102.932 21.658 102.008 21.658ZM106.379 23H107.985V14.926H106.379V23ZM112.232 23.176C113.915 23.176 115.026 22.098 115.026 20.492V17.06H113.42V20.316C113.42 21.152 112.98 21.658 112.232 21.658C111.495 21.658 111.044 21.163 111.044 20.316V17.06H109.438V20.492C109.438 22.098 110.56 23.176 112.232 23.176ZM119.248 23.176C120.799 23.176 122.02 22.164 122.295 20.668H120.678C120.403 21.306 119.897 21.658 119.248 21.658C118.39 21.658 117.719 20.943 117.719 20.03C117.719 19.106 118.379 18.402 119.248 18.402C119.886 18.402 120.425 18.754 120.678 19.337H122.273C121.987 17.874 120.799 16.895 119.259 16.895C117.455 16.895 116.091 18.237 116.091 20.019C116.091 21.801 117.455 23.176 119.248 23.176ZM123.362 16.268H124.957V14.783H123.362V16.268ZM123.362 23H124.968V17.06H123.362V23ZM128.589 16.411H129.799L130.888 14.739H129.183L128.589 16.411ZM129.326 23.176C131.152 23.176 132.538 21.823 132.538 20.03C132.538 18.237 131.152 16.895 129.326 16.895C127.489 16.895 126.114 18.237 126.114 20.03C126.114 21.823 127.489 23.176 129.326 23.176ZM129.326 21.658C128.402 21.658 127.742 20.998 127.742 20.03C127.742 19.073 128.402 18.402 129.326 18.402C130.25 18.402 130.91 19.073 130.91 20.03C130.91 20.998 130.25 21.658 129.326 21.658ZM137.073 16.928C136.27 16.928 135.555 17.269 135.104 17.797L134.796 17.06H133.696V23H135.302V19.887C135.302 18.93 135.808 18.336 136.633 18.336C137.326 18.336 137.667 18.765 137.667 19.667V23H139.273V19.403C139.273 17.896 138.426 16.928 137.073 16.928Z" fill="white"/>
</svg>
