<svg width="186" height="40" viewBox="0 0 186 40" fill="none" xmlns="http://www.w3.org/2000/svg">
<rect width="186" height="40" rx="20" fill="#FF7E44"/>
<path d="M29.1154 23.0581C31.0184 23.0581 32.5144 21.7821 32.8664 19.8791H31.1834C30.9084 20.8471 30.1274 21.4631 29.1154 21.4631C27.8064 21.4631 26.8274 20.4291 26.8274 19.0431C26.8274 17.6571 27.8064 16.6121 29.1154 16.6121C30.0834 16.6121 30.8534 17.1841 31.1724 18.0861H32.8334C32.4814 16.2601 30.9854 15.0171 29.1154 15.0171C26.8494 15.0171 25.1334 16.7551 25.1334 19.0431C25.1334 21.3201 26.8494 23.0581 29.1154 23.0581Z" fill="white"/>
<path d="M38.8008 16.9421L38.6358 17.5031C38.1188 17.0521 37.4478 16.7771 36.6778 16.7771C34.8958 16.7771 33.5648 18.1191 33.5648 19.9121C33.5648 21.7051 34.8958 23.0581 36.6778 23.0581C37.4368 23.0581 38.0968 22.7941 38.6028 22.3431L38.7458 22.8821H39.9998V16.9421H38.8008ZM36.8098 21.5401C35.8748 21.5401 35.1928 20.8361 35.1928 19.9121C35.1928 18.9771 35.8748 18.2841 36.8098 18.2841C37.7448 18.2841 38.4268 18.9771 38.4268 19.9121C38.4268 20.8471 37.7448 21.5401 36.8098 21.5401Z" fill="white"/>
<path d="M44.9325 16.8101C44.1295 16.8101 43.4145 17.1511 42.9635 17.6791L42.6555 16.9421H41.5555V22.8821H43.1615V19.7691C43.1615 18.8121 43.6675 18.2181 44.4925 18.2181C45.1855 18.2181 45.5265 18.6471 45.5265 19.5491V22.8821H47.1325V19.2851C47.1325 17.7781 46.2855 16.8101 44.9325 16.8101Z" fill="white"/>
<path d="M51.3634 23.0581C52.9144 23.0581 54.1354 22.0461 54.4104 20.5501H52.7934C52.5184 21.1881 52.0124 21.5401 51.3634 21.5401C50.5054 21.5401 49.8344 20.8251 49.8344 19.9121C49.8344 18.9881 50.4944 18.2841 51.3634 18.2841C52.0014 18.2841 52.5404 18.6361 52.7934 19.2191H54.3884C54.1024 17.7561 52.9144 16.7771 51.3744 16.7771C49.5704 16.7771 48.2064 18.1191 48.2064 19.9011C48.2064 21.6831 49.5704 23.0581 51.3634 23.0581Z" fill="white"/>
<path d="M61.2414 19.9011C61.2414 18.1851 59.9874 16.7771 58.1614 16.7771C56.4014 16.7771 55.0814 18.1301 55.0814 19.9121C55.0814 21.6941 56.4124 23.0581 58.1614 23.0581C59.5474 23.0581 60.6804 22.2331 61.1094 20.9351H59.4264C59.1844 21.3641 58.7224 21.6281 58.1614 21.6281C57.3804 21.6281 56.8524 21.1771 56.7094 20.3631H61.2084C61.2304 20.2091 61.2414 20.0551 61.2414 19.9011ZM58.1614 18.1521C58.8874 18.1521 59.4044 18.5481 59.6354 19.2741H56.7534C56.9404 18.5701 57.4464 18.1521 58.1614 18.1521Z" fill="white"/>
<path d="M62.3846 22.8821H63.9906V14.8081H62.3846V22.8821Z" fill="white"/>
<path d="M70.372 16.9421L70.207 17.5031C69.69 17.0521 69.019 16.7771 68.249 16.7771C66.467 16.7771 65.136 18.1191 65.136 19.9121C65.136 21.7051 66.467 23.0581 68.249 23.0581C69.008 23.0581 69.668 22.7941 70.174 22.3431L70.317 22.8821H71.571V16.9421H70.372ZM68.381 21.5401C67.446 21.5401 66.764 20.8361 66.764 19.9121C66.764 18.9771 67.446 18.2841 68.381 18.2841C69.316 18.2841 69.998 18.9771 69.998 19.9121C69.998 20.8471 69.316 21.5401 68.381 21.5401Z" fill="white"/>
<path d="M76.1628 16.9091C75.3928 16.9091 74.8648 17.1511 74.4358 17.6791L74.1498 16.9421H73.1268V22.8821H74.7328V19.8021C74.7328 18.8341 75.0848 18.4271 75.9868 18.4271H76.6908V16.9091H76.1628Z" fill="white"/>
<path d="M82.7641 23.0581C84.6011 23.0581 85.9761 21.7051 85.9761 19.9121C85.9761 18.1191 84.6011 16.7771 82.7641 16.7771C80.9271 16.7771 79.5521 18.1191 79.5521 19.9121C79.5521 21.7051 80.9271 23.0581 82.7641 23.0581ZM82.7641 21.5401C81.8401 21.5401 81.1801 20.8801 81.1801 19.9121C81.1801 18.9551 81.8401 18.2841 82.7641 18.2841C83.6881 18.2841 84.3481 18.9551 84.3481 19.9121C84.3481 20.8801 83.6881 21.5401 82.7641 21.5401Z" fill="white"/>
<path d="M92.8024 16.9091C92.0324 16.9091 91.5044 17.1511 91.0754 17.6791L90.7894 16.9421H89.7664V22.8821H91.3724V19.8021C91.3724 18.8341 91.7244 18.4271 92.6264 18.4271H93.3304V16.9091H92.8024Z" fill="white"/>
<path d="M99.881 19.9011C99.881 18.1851 98.627 16.7771 96.801 16.7771C95.041 16.7771 93.721 18.1301 93.721 19.9121C93.721 21.6941 95.052 23.0581 96.801 23.0581C98.187 23.0581 99.32 22.2331 99.749 20.9351H98.066C97.824 21.3641 97.362 21.6281 96.801 21.6281C96.02 21.6281 95.492 21.1771 95.349 20.3631H99.848C99.87 20.2091 99.881 20.0551 99.881 19.9011ZM96.801 18.1521C97.527 18.1521 98.044 18.5481 98.275 19.2741H95.393C95.58 18.5701 96.086 18.1521 96.801 18.1521Z" fill="white"/>
<path d="M104.258 16.7771C103.521 16.7771 102.861 17.0411 102.355 17.4921L102.08 16.9421H101.024V25.0271H102.63V22.5631C103.081 22.8821 103.642 23.0691 104.258 23.0691C106.051 23.0691 107.371 21.7161 107.371 19.9121C107.371 18.1191 106.051 16.7771 104.258 16.7771ZM104.126 21.5401C103.191 21.5401 102.509 20.8471 102.509 19.9121C102.509 18.9881 103.191 18.2841 104.126 18.2841C105.061 18.2841 105.743 18.9881 105.743 19.9121C105.743 20.8471 105.061 21.5401 104.126 21.5401Z" fill="white"/>
<path d="M111.558 16.9091C110.788 16.9091 110.26 17.1511 109.831 17.6791L109.545 16.9421H108.522V22.8821H110.128V19.8021C110.128 18.8341 110.48 18.4271 111.382 18.4271H112.086V16.9091H111.558Z" fill="white"/>
<path d="M115.689 23.0581C117.526 23.0581 118.901 21.7051 118.901 19.9121C118.901 18.1191 117.526 16.7771 115.689 16.7771C113.852 16.7771 112.477 18.1191 112.477 19.9121C112.477 21.7051 113.852 23.0581 115.689 23.0581ZM115.689 21.5401C114.765 21.5401 114.105 20.8801 114.105 19.9121C114.105 18.9551 114.765 18.2841 115.689 18.2841C116.613 18.2841 117.273 18.9551 117.273 19.9121C117.273 20.8801 116.613 21.5401 115.689 21.5401Z" fill="white"/>
<path d="M124.855 16.9421L124.591 17.5361C124.074 17.0631 123.392 16.7771 122.622 16.7771C120.961 16.7771 119.663 18.0971 119.663 19.7581C119.663 21.4301 120.961 22.7391 122.622 22.7391C123.26 22.7391 123.843 22.5411 124.316 22.2111V22.4311C124.316 23.3001 123.645 23.8281 122.831 23.8281C122.237 23.8281 121.61 23.5531 121.423 23.0141H119.828C120.103 24.3671 121.247 25.1921 122.853 25.1921C124.734 25.1921 125.889 24.0591 125.889 22.2001V16.9531L124.855 16.9421ZM122.809 21.2981C121.929 21.2981 121.291 20.6491 121.291 19.7691C121.291 18.8781 121.929 18.2291 122.809 18.2291C123.689 18.2291 124.327 18.8781 124.327 19.7691C124.327 20.6491 123.689 21.2981 122.809 21.2981Z" fill="white"/>
<path d="M130.475 16.9091C129.705 16.9091 129.177 17.1511 128.748 17.6791L128.462 16.9421H127.439V22.8821H129.045V19.8021C129.045 18.8341 129.397 18.4271 130.299 18.4271H131.003V16.9091H130.475Z" fill="white"/>
<path d="M136.63 16.9421L136.465 17.5031C135.948 17.0521 135.277 16.7771 134.507 16.7771C132.725 16.7771 131.394 18.1191 131.394 19.9121C131.394 21.7051 132.725 23.0581 134.507 23.0581C135.266 23.0581 135.926 22.7941 136.432 22.3431L136.575 22.8821H137.829V16.9421H136.63ZM134.639 21.5401C133.704 21.5401 133.022 20.8361 133.022 19.9121C133.022 18.9771 133.704 18.2841 134.639 18.2841C135.574 18.2841 136.256 18.9771 136.256 19.9121C136.256 20.8471 135.574 21.5401 134.639 21.5401Z" fill="white"/>
<path d="M146.139 16.8101C145.38 16.8101 144.709 17.1841 144.302 17.7561C143.95 17.1621 143.334 16.8101 142.575 16.8101C141.871 16.8101 141.222 17.1511 140.804 17.6791L140.507 16.9421H139.385V22.8821H140.991V19.6701C140.991 18.7461 141.42 18.2181 142.146 18.2181C142.718 18.2181 143.026 18.6361 143.026 19.4281V22.8821H144.588V19.6701C144.588 18.7461 145.017 18.2181 145.732 18.2181C146.315 18.2181 146.623 18.6361 146.623 19.4281V22.8821H148.229V19.1641C148.229 17.7671 147.371 16.8101 146.139 16.8101Z" fill="white"/>
<path d="M154.548 16.9421L154.383 17.5031C153.866 17.0521 153.195 16.7771 152.425 16.7771C150.643 16.7771 149.312 18.1191 149.312 19.9121C149.312 21.7051 150.643 23.0581 152.425 23.0581C153.184 23.0581 153.844 22.7941 154.35 22.3431L154.493 22.8821H155.747V16.9421H154.548ZM152.557 21.5401C151.622 21.5401 150.94 20.8361 150.94 19.9121C150.94 18.9771 151.622 18.2841 152.557 18.2841C153.492 18.2841 154.174 18.9771 154.174 19.9121C154.174 20.8471 153.492 21.5401 152.557 21.5401Z" fill="white"/>
<path d="M160.339 16.9091C159.569 16.9091 159.041 17.1511 158.612 17.6791L158.326 16.9421H157.303V22.8821H158.909V19.8021C158.909 18.8341 159.261 18.4271 160.163 18.4271H160.867V16.9091H160.339Z" fill="white"/>
</svg>
