<svg width="126" height="40" viewBox="0 0 126 40" fill="none" xmlns="http://www.w3.org/2000/svg">
<rect width="126" height="40" rx="20" fill="#FF7E44"/>
<path d="M22.3112 24.2185C24.2142 24.2185 25.7102 22.9425 26.0622 21.0395H24.3792C24.1042 22.0075 23.3232 22.6235 22.3112 22.6235C21.0022 22.6235 20.0232 21.5895 20.0232 20.2035C20.0232 18.8175 21.0022 17.7725 22.3112 17.7725C23.2792 17.7725 24.0492 18.3445 24.3682 19.2465H26.0292C25.6772 17.4205 24.1812 16.1775 22.3112 16.1775C20.0452 16.1775 18.3292 17.9155 18.3292 20.2035C18.3292 22.4805 20.0452 24.2185 22.3112 24.2185Z" fill="white"/>
<path d="M29.9725 24.2185C31.8095 24.2185 33.1845 22.8655 33.1845 21.0725C33.1845 19.2795 31.8095 17.9375 29.9725 17.9375C28.1355 17.9375 26.7605 19.2795 26.7605 21.0725C26.7605 22.8655 28.1355 24.2185 29.9725 24.2185ZM29.9725 22.7005C29.0485 22.7005 28.3885 22.0405 28.3885 21.0725C28.3885 20.1155 29.0485 19.4445 29.9725 19.4445C30.8965 19.4445 31.5565 20.1155 31.5565 21.0725C31.5565 22.0405 30.8965 22.7005 29.9725 22.7005Z" fill="white"/>
<path d="M37.72 17.9705C36.917 17.9705 36.202 18.3115 35.751 18.8395L35.443 18.1025H34.343V24.0425H35.949V20.9295C35.949 19.9725 36.455 19.3785 37.28 19.3785C37.973 19.3785 38.314 19.8075 38.314 20.7095V24.0425H39.92V20.4455C39.92 18.9385 39.073 17.9705 37.72 17.9705Z" fill="white"/>
<path d="M44.9447 18.1905H43.4157V17.6845C43.4157 17.2665 43.6357 17.0465 44.0647 17.0465H44.9337V15.7815H43.7457C42.4917 15.7815 41.8537 16.5075 41.8537 17.6515V18.1905H40.8197V19.5105H41.8427V24.0425H43.4487V19.5105H44.9447V18.1905Z" fill="white"/>
<path d="M45.8801 17.3105H47.4751V15.8255H45.8801V17.3105ZM45.8801 24.0425H47.4861V18.1025H45.8801V24.0425Z" fill="white"/>
<path d="M52.0636 18.0695C51.2936 18.0695 50.7656 18.3115 50.3366 18.8395L50.0506 18.1025H49.0276V24.0425H50.6336V20.9625C50.6336 19.9945 50.9856 19.5875 51.8876 19.5875H52.5916V18.0695H52.0636Z" fill="white"/>
<path d="M60.2611 17.9705C59.5021 17.9705 58.8311 18.3445 58.4241 18.9165C58.0721 18.3225 57.4561 17.9705 56.6971 17.9705C55.9931 17.9705 55.3441 18.3115 54.9261 18.8395L54.6291 18.1025H53.5071V24.0425H55.1131V20.8305C55.1131 19.9065 55.5421 19.3785 56.2681 19.3785C56.8401 19.3785 57.1481 19.7965 57.1481 20.5885V24.0425H58.7101V20.8305C58.7101 19.9065 59.1391 19.3785 59.8541 19.3785C60.4371 19.3785 60.7451 19.7965 60.7451 20.5885V24.0425H62.3511V20.3245C62.3511 18.9275 61.4931 17.9705 60.2611 17.9705Z" fill="white"/>
<path d="M68.6703 18.1025L68.5053 18.6635C67.9883 18.2125 67.3173 17.9375 66.5473 17.9375C64.7653 17.9375 63.4343 19.2795 63.4343 21.0725C63.4343 22.8655 64.7653 24.2185 66.5473 24.2185C67.3063 24.2185 67.9663 23.9545 68.4723 23.5035L68.6153 24.0425H69.8693V18.1025H68.6703ZM66.6793 22.7005C65.7443 22.7005 65.0623 21.9965 65.0623 21.0725C65.0623 20.1375 65.7443 19.4445 66.6793 19.4445C67.6143 19.4445 68.2963 20.1375 68.2963 21.0725C68.2963 22.0075 67.6143 22.7005 66.6793 22.7005Z" fill="white"/>
<path d="M74.461 18.0695C73.691 18.0695 73.163 18.3115 72.734 18.8395L72.448 18.1025H71.425V24.0425H73.031V20.9625C73.031 19.9945 73.383 19.5875 74.285 19.5875H74.989V18.0695H74.461Z" fill="white"/>
<path d="M81.2823 18.0695C80.5123 18.0695 79.9843 18.3115 79.5553 18.8395L79.2693 18.1025H78.2463V24.0425H79.8523V20.9625C79.8523 19.9945 80.2043 19.5875 81.1063 19.5875H81.8103V18.0695H81.2823Z" fill="white"/>
<path d="M88.3609 21.0615C88.3609 19.3455 87.1069 17.9375 85.2809 17.9375C83.5209 17.9375 82.2009 19.2905 82.2009 21.0725C82.2009 22.8545 83.5319 24.2185 85.2809 24.2185C86.6669 24.2185 87.7999 23.3935 88.2289 22.0955H86.5459C86.3039 22.5245 85.8419 22.7885 85.2809 22.7885C84.4999 22.7885 83.9719 22.3375 83.8289 21.5235H88.3279C88.3499 21.3695 88.3609 21.2155 88.3609 21.0615ZM85.2809 19.3125C86.0069 19.3125 86.5239 19.7085 86.7549 20.4345H83.8729C84.0599 19.7305 84.5659 19.3125 85.2809 19.3125Z" fill="white"/>
<path d="M92.3222 22.6125C91.7282 22.6125 91.3982 22.2825 91.3982 21.7105V19.4005H93.0152V18.1025H91.3762V16.5625H91.0682L88.7252 19.0485V19.4005H89.7922V21.9305C89.7922 23.2395 90.5952 24.0425 91.9042 24.0425H93.0482V22.6125H92.3222Z" fill="white"/>
<path d="M94.1448 17.3105H95.7398V15.8255H94.1448V17.3105ZM94.1448 24.0425H95.7508V18.1025H94.1448V24.0425Z" fill="white"/>
<path d="M100.328 18.0695C99.5582 18.0695 99.0302 18.3115 98.6012 18.8395L98.3152 18.1025H97.2922V24.0425H98.8982V20.9625C98.8982 19.9945 99.2502 19.5875 100.152 19.5875H100.856V18.0695H100.328Z" fill="white"/>
<path d="M104.459 24.2185C106.296 24.2185 107.671 22.8655 107.671 21.0725C107.671 19.2795 106.296 17.9375 104.459 17.9375C102.622 17.9375 101.247 19.2795 101.247 21.0725C101.247 22.8655 102.622 24.2185 104.459 24.2185ZM104.459 22.7005C103.535 22.7005 102.875 22.0405 102.875 21.0725C102.875 20.1155 103.535 19.4445 104.459 19.4445C105.383 19.4445 106.043 20.1155 106.043 21.0725C106.043 22.0405 105.383 22.7005 104.459 22.7005Z" fill="white"/>
</svg>
