<svg width="78" height="36" viewBox="0 0 78 36" fill="none" xmlns="http://www.w3.org/2000/svg">
<path d="M19.7677 31.02V30.012H21.4687V29.053H19.7677V28.08H21.6507V27.1H18.7107V32H21.7277V31.02H19.7677ZM25.7918 27.1V30.089L23.6428 27.1H22.6908V32H23.7268V28.941L25.9458 32H26.8348V27.1H25.7918ZM32.0163 32.112C33.2273 32.112 34.1793 31.3 34.4033 30.089H33.3323C33.1573 30.705 32.6603 31.097 32.0163 31.097C31.1833 31.097 30.5603 30.439 30.5603 29.557C30.5603 28.675 31.1833 28.01 32.0163 28.01C32.6323 28.01 33.1223 28.374 33.3253 28.948H34.3823C34.1583 27.786 33.2063 26.995 32.0163 26.995C30.5743 26.995 29.4823 28.101 29.4823 29.557C29.4823 31.006 30.5743 32.112 32.0163 32.112ZM38.3236 32H39.4786L37.4976 27.1H36.4966L34.5716 32H35.6986L36.0346 31.076H37.9806L38.3236 32ZM37.0076 28.395L37.6516 30.152H36.3636L37.0076 28.395ZM46.169 32L45.413 27.1H44.349L43.019 30.11L41.689 27.1H40.632L39.862 32H40.94L41.423 28.808L42.886 31.993H43.145L44.608 28.808L45.091 32H46.169ZM47.0623 32H48.1193V27.1H47.0623V32ZM52.414 27.1V30.089L50.265 27.1H49.313V32H50.349V28.941L52.568 32H53.457V27.1H52.414ZM56.9706 32.112C58.4616 32.112 59.5746 31.013 59.5746 29.55C59.5746 28.094 58.4616 26.995 56.9706 26.995C55.4726 26.995 54.3526 28.101 54.3526 29.55C54.3526 31.006 55.4726 32.112 56.9706 32.112ZM56.9706 31.111C56.0956 31.111 55.4306 30.432 55.4306 29.55C55.4306 28.668 56.0956 27.996 56.9706 27.996C57.8456 27.996 58.4966 28.661 58.4966 29.55C58.4966 30.439 57.8456 31.111 56.9706 31.111Z" fill="#212121"/>
<path d="M0 8H78" stroke="#C6C6C6" stroke-width="0.6"/>
<circle cx="39" cy="8" r="8" fill="#C6C6C6"/>
</svg>
