<svg width="106" height="42" viewBox="0 0 106 42" fill="none" xmlns="http://www.w3.org/2000/svg">
<path d="M25.5252 31.6V30.16H27.9552V28.79H25.5252V27.4H28.2152V26H24.0152V33H28.3252V31.6H25.5252ZM34.1312 26V30.27L31.0612 26H29.7012V33H31.1812V28.63L34.3512 33H35.6212V26H34.1312ZM43.0233 33.16C44.7533 33.16 46.1133 32 46.4333 30.27H44.9033C44.6533 31.15 43.9433 31.71 43.0233 31.71C41.8333 31.71 40.9433 30.77 40.9433 29.51C40.9433 28.25 41.8333 27.3 43.0233 27.3C43.9033 27.3 44.6033 27.82 44.8933 28.64H46.4033C46.0833 26.98 44.7233 25.85 43.0233 25.85C40.9633 25.85 39.4033 27.43 39.4033 29.51C39.4033 31.58 40.9633 33.16 43.0233 33.16ZM52.0338 33H53.6838L50.8538 26H49.4238L46.6738 33H48.2838L48.7638 31.68H51.5438L52.0338 33ZM50.1538 27.85L51.0738 30.36H49.2337L50.1538 27.85ZM63.2415 33L62.1615 26H60.6415L58.7415 30.3L56.8415 26H55.3315L54.2315 33H55.7715L56.4615 28.44L58.5515 32.99H58.9215L61.0115 28.44L61.7015 33H63.2415ZM64.5176 33H66.0276V26H64.5176V33ZM72.1628 26V30.27L69.0928 26H67.7328V33H69.2128V28.63L72.3828 33H73.6528V26H72.1628ZM78.6723 33.16C80.8023 33.16 82.3923 31.59 82.3923 29.5C82.3923 27.42 80.8023 25.85 78.6723 25.85C76.5323 25.85 74.9323 27.43 74.9323 29.5C74.9323 31.58 76.5323 33.16 78.6723 33.16ZM78.6723 31.73C77.4223 31.73 76.4723 30.76 76.4723 29.5C76.4723 28.24 77.4223 27.28 78.6723 27.28C79.9223 27.28 80.8523 28.23 80.8523 29.5C80.8523 30.77 79.9223 31.73 78.6723 31.73Z" fill="#212121"/>
<circle cx="53" cy="8" r="8" fill="#C6C6C6"/>
<path d="M0 9L106 9.00001" stroke="#C6C6C6" stroke-width="0.6"/>
</svg>
