<svg width="60" height="42" viewBox="0 0 60 42" fill="none" xmlns="http://www.w3.org/2000/svg">
<path d="M17.8004 31.02V30.012H19.5014V29.053H17.8004V28.08H19.6834V27.1H16.7434V32H19.7604V31.02H17.8004ZM23.8245 27.1V30.089L21.6755 27.1H20.7235V32H21.7595V28.941L23.9785 32H24.8675V27.1H23.8245ZM29.4312 27.1H25.6442V28.087H27.0092V32H28.0662V28.087H29.4312V27.1ZM32.9101 32H34.0931L33.0081 30.152C33.5541 29.886 33.9041 29.368 33.9041 28.724C33.9041 27.779 33.1691 27.1 32.1891 27.1H30.2151V32H31.2721V30.334H31.9511L32.9101 32ZM31.2721 28.08H32.1191C32.5671 28.08 32.8261 28.353 32.8261 28.717C32.8261 29.088 32.5671 29.354 32.1191 29.354H31.2721V28.08ZM35.97 31.02V30.012H37.671V29.053H35.97V28.08H37.853V27.1H34.913V32H37.93V31.02H35.97ZM40.967 29.445V30.257H42.437C42.255 30.761 41.702 31.097 41.072 31.097C40.19 31.097 39.609 30.467 39.609 29.557C39.609 28.64 40.204 28.01 41.072 28.01C41.688 28.01 42.206 28.339 42.416 28.864H43.508C43.277 27.765 42.269 26.995 41.051 26.995C39.602 26.995 38.531 28.094 38.531 29.557C38.531 31.027 39.63 32.112 41.072 32.112C42.542 32.112 43.571 30.978 43.571 29.445H40.967ZM47.509 32H48.664L46.683 27.1H45.682L43.757 32H44.884L45.22 31.076H47.166L47.509 32ZM46.193 28.395L46.837 30.152H45.549L46.193 28.395ZM51.2034 27.1H49.3554V32H51.2034C52.6454 32 53.6884 30.971 53.6884 29.55C53.6884 28.129 52.6454 27.1 51.2034 27.1ZM51.1824 31.02H50.4124V28.087H51.1824C52.0224 28.087 52.6034 28.682 52.6034 29.55C52.6034 30.404 52.0224 31.02 51.1824 31.02ZM56.9379 32.112C58.4289 32.112 59.5419 31.013 59.5419 29.55C59.5419 28.094 58.4289 26.995 56.9379 26.995C55.4399 26.995 54.3199 28.101 54.3199 29.55C54.3199 31.006 55.4399 32.112 56.9379 32.112ZM56.9379 31.111C56.0629 31.111 55.3979 30.432 55.3979 29.55C55.3979 28.668 56.0629 27.996 56.9379 27.996C57.8129 27.996 58.4639 28.661 58.4639 29.55C58.4639 30.439 57.8129 31.111 56.9379 31.111Z" fill="#212121"/>
<path d="M0 8L38 8" stroke="#C6C6C6" stroke-width="0.6"/>
<circle cx="38" cy="8" r="8" fill="#80E3F5"/>
</svg>
