<svg width="84" height="42" viewBox="0 0 84 42" fill="none" xmlns="http://www.w3.org/2000/svg">
<path d="M23.6434 31.6V30.16H26.0734V28.79H23.6434V27.4H26.3334V26H22.1334V33H26.4434V31.6H23.6434ZM32.2493 26V30.27L29.1793 26H27.8193V33H29.2993V28.63L32.4693 33H33.7393V26H32.2493ZM40.2589 26H34.8489V27.41H36.7989V33H38.3089V27.41H40.2589V26ZM45.2287 33H46.9187L45.3687 30.36C46.1487 29.98 46.6487 29.24 46.6487 28.32C46.6487 26.97 45.5987 26 44.1987 26H41.3787V33H42.8887V30.62H43.8587L45.2287 33ZM42.8887 27.4H44.0987C44.7387 27.4 45.1087 27.79 45.1087 28.31C45.1087 28.84 44.7387 29.22 44.0987 29.22H42.8887V27.4ZM49.6 31.6V30.16H52.03V28.79H49.6V27.4H52.29V26H48.09V33H52.4V31.6H49.6ZM56.7386 29.35V30.51H58.8386C58.5786 31.23 57.7886 31.71 56.8886 31.71C55.6286 31.71 54.7986 30.81 54.7986 29.51C54.7986 28.2 55.6486 27.3 56.8886 27.3C57.7686 27.3 58.5086 27.77 58.8086 28.52H60.3686C60.0386 26.95 58.5986 25.85 56.8586 25.85C54.7886 25.85 53.2586 27.42 53.2586 29.51C53.2586 31.61 54.8286 33.16 56.8886 33.16C58.9886 33.16 60.4586 31.54 60.4586 29.35H56.7386ZM66.0843 33H67.7343L64.9043 26H63.4743L60.7243 33H62.3343L62.8143 31.68H65.5943L66.0843 33ZM64.2043 27.85L65.1243 30.36H63.2843L64.2043 27.85ZM71.3621 26H68.7221V33H71.3621C73.4221 33 74.9121 31.53 74.9121 29.5C74.9121 27.47 73.4221 26 71.3621 26ZM71.3321 31.6H70.2321V27.41H71.3321C72.5321 27.41 73.3621 28.26 73.3621 29.5C73.3621 30.72 72.5321 31.6 71.3321 31.6ZM79.5542 33.16C81.6842 33.16 83.2742 31.59 83.2742 29.5C83.2742 27.42 81.6842 25.85 79.5542 25.85C77.4142 25.85 75.8142 27.43 75.8142 29.5C75.8142 31.58 77.4142 33.16 79.5542 33.16ZM79.5542 31.73C78.3042 31.73 77.3542 30.76 77.3542 29.5C77.3542 28.24 78.3042 27.28 79.5542 27.28C80.8042 27.28 81.7342 28.23 81.7342 29.5C81.7342 30.77 80.8042 31.73 79.5542 31.73Z" fill="#212121"/>
<path d="M0 9L53 9" stroke="#C6C6C6" stroke-width="0.6"/>
<circle cx="53" cy="8" r="8" fill="#80E3F5"/>
</svg>
