<svg width="109" height="14" viewBox="0 0 109 14" fill="none" xmlns="http://www.w3.org/2000/svg">
<path d="M29.297 6.832C29.297 6.208 29.432 5.653 29.702 5.167C29.972 4.675 30.347 4.294 30.827 4.024C31.313 3.748 31.862 3.61 32.474 3.61C33.224 3.61 33.866 3.808 34.4 4.204C34.934 4.6 35.291 5.14 35.471 5.824H33.779C33.653 5.56 33.473 5.359 33.239 5.221C33.011 5.083 32.75 5.014 32.456 5.014C31.982 5.014 31.598 5.179 31.304 5.509C31.01 5.839 30.863 6.28 30.863 6.832C30.863 7.384 31.01 7.825 31.304 8.155C31.598 8.485 31.982 8.65 32.456 8.65C32.75 8.65 33.011 8.581 33.239 8.443C33.473 8.305 33.653 8.104 33.779 7.84H35.471C35.291 8.524 34.934 9.064 34.4 9.46C33.866 9.85 33.224 10.045 32.474 10.045C31.862 10.045 31.313 9.91 30.827 9.64C30.347 9.364 29.972 8.983 29.702 8.497C29.432 8.011 29.297 7.456 29.297 6.832ZM38.6995 10.072C38.2075 10.072 37.7635 9.967 37.3675 9.757C36.9775 9.547 36.6685 9.247 36.4405 8.857C36.2185 8.467 36.1075 8.011 36.1075 7.489C36.1075 6.973 36.2215 6.52 36.4495 6.13C36.6775 5.734 36.9895 5.431 37.3855 5.221C37.7815 5.011 38.2255 4.906 38.7175 4.906C39.2095 4.906 39.6535 5.011 40.0495 5.221C40.4455 5.431 40.7575 5.734 40.9855 6.13C41.2135 6.52 41.3275 6.973 41.3275 7.489C41.3275 8.005 41.2105 8.461 40.9765 8.857C40.7485 9.247 40.4335 9.547 40.0315 9.757C39.6355 9.967 39.1915 10.072 38.6995 10.072ZM38.6995 8.74C38.9935 8.74 39.2425 8.632 39.4465 8.416C39.6565 8.2 39.7615 7.891 39.7615 7.489C39.7615 7.087 39.6595 6.778 39.4555 6.562C39.2575 6.346 39.0115 6.238 38.7175 6.238C38.4175 6.238 38.1685 6.346 37.9705 6.562C37.7725 6.772 37.6735 7.081 37.6735 7.489C37.6735 7.891 37.7695 8.2 37.9615 8.416C38.1595 8.632 38.4055 8.74 38.6995 8.74ZM45.2039 4.924C45.7919 4.924 46.2599 5.116 46.6079 5.5C46.9619 5.878 47.1389 6.4 47.1389 7.066V10H45.6089V7.273C45.6089 6.937 45.5219 6.676 45.3479 6.49C45.1739 6.304 44.9399 6.211 44.6459 6.211C44.3519 6.211 44.1179 6.304 43.9439 6.49C43.7699 6.676 43.6829 6.937 43.6829 7.273V10H42.1439V4.978H43.6829V5.644C43.8389 5.422 44.0489 5.248 44.3129 5.122C44.5769 4.99 44.8739 4.924 45.2039 4.924ZM51.0074 8.695V10H50.2244C49.6664 10 49.2314 9.865 48.9194 9.595C48.6074 9.319 48.4514 8.872 48.4514 8.254V6.256H47.8394V4.978H48.4514V3.754H49.9904V4.978H50.9984V6.256H49.9904V8.272C49.9904 8.422 50.0264 8.53 50.0984 8.596C50.1704 8.662 50.2904 8.695 50.4584 8.695H51.0074ZM51.5586 7.48C51.5586 6.964 51.6546 6.511 51.8466 6.121C52.0446 5.731 52.3116 5.431 52.6476 5.221C52.9836 5.011 53.3586 4.906 53.7726 4.906C54.1266 4.906 54.4356 4.978 54.6996 5.122C54.9696 5.266 55.1766 5.455 55.3206 5.689V4.978H56.8596V10H55.3206V9.289C55.1706 9.523 54.9606 9.712 54.6906 9.856C54.4266 10 54.1176 10.072 53.7636 10.072C53.3556 10.072 52.9836 9.967 52.6476 9.757C52.3116 9.541 52.0446 9.238 51.8466 8.848C51.6546 8.452 51.5586 7.996 51.5586 7.48ZM55.3206 7.489C55.3206 7.105 55.2126 6.802 54.9966 6.58C54.7866 6.358 54.5286 6.247 54.2226 6.247C53.9166 6.247 53.6556 6.358 53.4396 6.58C53.2296 6.796 53.1246 7.096 53.1246 7.48C53.1246 7.864 53.2296 8.17 53.4396 8.398C53.6556 8.62 53.9166 8.731 54.2226 8.731C54.5286 8.731 54.7866 8.62 54.9966 8.398C55.2126 8.176 55.3206 7.873 55.3206 7.489ZM57.667 7.489C57.667 6.967 57.772 6.511 57.982 6.121C58.198 5.731 58.495 5.431 58.873 5.221C59.257 5.011 59.695 4.906 60.187 4.906C60.817 4.906 61.342 5.071 61.762 5.401C62.188 5.731 62.467 6.196 62.599 6.796H60.961C60.823 6.412 60.556 6.22 60.16 6.22C59.878 6.22 59.653 6.331 59.485 6.553C59.317 6.769 59.233 7.081 59.233 7.489C59.233 7.897 59.317 8.212 59.485 8.434C59.653 8.65 59.878 8.758 60.16 8.758C60.556 8.758 60.823 8.566 60.961 8.182H62.599C62.467 8.77 62.188 9.232 61.762 9.568C61.336 9.904 60.811 10.072 60.187 10.072C59.695 10.072 59.257 9.967 58.873 9.757C58.495 9.547 58.198 9.247 57.982 8.857C57.772 8.467 57.667 8.011 57.667 7.489ZM66.2213 8.695V10H65.4383C64.8803 10 64.4453 9.865 64.1333 9.595C63.8213 9.319 63.6653 8.872 63.6653 8.254V6.256H63.0533V4.978H63.6653V3.754H65.2043V4.978H66.2123V6.256H65.2043V8.272C65.2043 8.422 65.2403 8.53 65.3123 8.596C65.3843 8.662 65.5043 8.695 65.6723 8.695H66.2213ZM69.3645 10.072C68.8725 10.072 68.4285 9.967 68.0325 9.757C67.6425 9.547 67.3335 9.247 67.1055 8.857C66.8835 8.467 66.7725 8.011 66.7725 7.489C66.7725 6.973 66.8865 6.52 67.1145 6.13C67.3425 5.734 67.6545 5.431 68.0505 5.221C68.4465 5.011 68.8905 4.906 69.3825 4.906C69.8745 4.906 70.3185 5.011 70.7145 5.221C71.1105 5.431 71.4225 5.734 71.6505 6.13C71.8785 6.52 71.9925 6.973 71.9925 7.489C71.9925 8.005 71.8755 8.461 71.6415 8.857C71.4135 9.247 71.0985 9.547 70.6965 9.757C70.3005 9.967 69.8565 10.072 69.3645 10.072ZM69.3645 8.74C69.6585 8.74 69.9075 8.632 70.1115 8.416C70.3215 8.2 70.4265 7.891 70.4265 7.489C70.4265 7.087 70.3245 6.778 70.1205 6.562C69.9225 6.346 69.6765 6.238 69.3825 6.238C69.0825 6.238 68.8335 6.346 68.6355 6.562C68.4375 6.772 68.3385 7.081 68.3385 7.489C68.3385 7.891 68.4345 8.2 68.6265 8.416C68.8245 8.632 69.0705 8.74 69.3645 8.74ZM77.813 3.988C78.521 3.988 79.139 4.123 79.667 4.393C80.195 4.657 80.6 5.032 80.882 5.518C81.17 5.998 81.314 6.553 81.314 7.183C81.314 7.693 81.224 8.167 81.044 8.605C80.87 9.043 80.609 9.394 80.261 9.658C79.919 9.916 79.511 10.045 79.037 10.045C78.719 10.045 78.455 9.982 78.245 9.856C78.041 9.73 77.903 9.553 77.831 9.325C77.663 9.559 77.447 9.742 77.183 9.874C76.919 10 76.631 10.063 76.319 10.063C75.875 10.063 75.524 9.931 75.266 9.667C75.014 9.397 74.888 9.031 74.888 8.569C74.888 8.131 74.978 7.72 75.158 7.336C75.338 6.946 75.587 6.634 75.905 6.4C76.223 6.166 76.58 6.049 76.976 6.049C77.48 6.049 77.822 6.229 78.002 6.589L78.083 6.112H79.325L78.929 8.371C78.911 8.479 78.902 8.575 78.902 8.659C78.902 8.923 79.019 9.055 79.253 9.055C79.541 9.055 79.76 8.872 79.91 8.506C80.066 8.134 80.144 7.708 80.144 7.228C80.144 6.538 79.925 5.998 79.487 5.608C79.055 5.218 78.446 5.023 77.66 5.023C76.988 5.023 76.376 5.185 75.824 5.509C75.278 5.833 74.849 6.277 74.537 6.841C74.225 7.399 74.069 8.014 74.069 8.686C74.069 9.412 74.279 9.976 74.699 10.378C75.125 10.78 75.719 10.981 76.481 10.981C77.075 10.981 77.606 10.873 78.074 10.657L78.317 11.638C77.729 11.896 77.069 12.025 76.337 12.025C75.653 12.025 75.05 11.893 74.528 11.629C74.012 11.365 73.613 10.99 73.331 10.504C73.049 10.018 72.908 9.451 72.908 8.803C72.908 7.897 73.121 7.078 73.547 6.346C73.973 5.608 74.558 5.032 75.302 4.618C76.052 4.198 76.889 3.988 77.813 3.988ZM76.823 8.956C76.991 8.956 77.147 8.905 77.291 8.803C77.441 8.701 77.558 8.566 77.642 8.398C77.732 8.224 77.777 8.038 77.777 7.84C77.777 7.636 77.72 7.471 77.606 7.345C77.492 7.213 77.336 7.147 77.138 7.147C76.874 7.147 76.655 7.261 76.481 7.489C76.307 7.717 76.22 7.987 76.22 8.299C76.22 8.497 76.271 8.656 76.373 8.776C76.475 8.896 76.625 8.956 76.823 8.956ZM84.0687 5.689C84.2127 5.455 84.4197 5.266 84.6897 5.122C84.9597 4.978 85.2687 4.906 85.6167 4.906C86.0307 4.906 86.4057 5.011 86.7417 5.221C87.0777 5.431 87.3417 5.731 87.5337 6.121C87.7317 6.511 87.8307 6.964 87.8307 7.48C87.8307 7.996 87.7317 8.452 87.5337 8.848C87.3417 9.238 87.0777 9.541 86.7417 9.757C86.4057 9.967 86.0307 10.072 85.6167 10.072C85.2627 10.072 84.9537 10.003 84.6897 9.865C84.4257 9.721 84.2187 9.532 84.0687 9.298V10H82.5297V3.34H84.0687V5.689ZM86.2647 7.48C86.2647 7.096 86.1567 6.796 85.9407 6.58C85.7307 6.358 85.4697 6.247 85.1577 6.247C84.8517 6.247 84.5907 6.358 84.3747 6.58C84.1647 6.802 84.0597 7.105 84.0597 7.489C84.0597 7.873 84.1647 8.176 84.3747 8.398C84.5907 8.62 84.8517 8.731 85.1577 8.731C85.4637 8.731 85.7247 8.62 85.9407 8.398C86.1567 8.17 86.2647 7.864 86.2647 7.48ZM91.6081 10L90.6451 8.605L89.8351 10H88.1701L89.8261 7.435L88.1251 4.978H89.8531L90.8161 6.364L91.6261 4.978H93.2911L91.6081 7.507L93.3361 10H91.6081ZM94.6491 10.072C94.3791 10.072 94.1571 9.994 93.9831 9.838C93.8151 9.676 93.7311 9.478 93.7311 9.244C93.7311 9.004 93.8151 8.803 93.9831 8.641C94.1571 8.479 94.3791 8.398 94.6491 8.398C94.9131 8.398 95.1291 8.479 95.2971 8.641C95.4711 8.803 95.5581 9.004 95.5581 9.244C95.5581 9.478 95.4711 9.676 95.2971 9.838C95.1291 9.994 94.9131 10.072 94.6491 10.072ZM96.1631 7.489C96.1631 6.967 96.2681 6.511 96.4781 6.121C96.6941 5.731 96.9911 5.431 97.3691 5.221C97.7531 5.011 98.1911 4.906 98.6831 4.906C99.3131 4.906 99.8381 5.071 100.258 5.401C100.684 5.731 100.963 6.196 101.095 6.796H99.4571C99.3191 6.412 99.0521 6.22 98.6561 6.22C98.3741 6.22 98.1491 6.331 97.9811 6.553C97.8131 6.769 97.7291 7.081 97.7291 7.489C97.7291 7.897 97.8131 8.212 97.9811 8.434C98.1491 8.65 98.3741 8.758 98.6561 8.758C99.0521 8.758 99.3191 8.566 99.4571 8.182H101.095C100.963 8.77 100.684 9.232 100.258 9.568C99.8321 9.904 99.3071 10.072 98.6831 10.072C98.1911 10.072 97.7531 9.967 97.3691 9.757C96.9911 9.547 96.6941 9.247 96.4781 8.857C96.2681 8.467 96.1631 8.011 96.1631 7.489ZM103.457 3.34V10H101.918V3.34H103.457Z" fill="#003399"/>
<path d="M15.2296 1H1.77039C0.79632 1 0 1.75912 0 2.6877V12.3123C0 13.2409 0.79632 14 1.77039 14H15.2296C16.2037 14 17 13.2409 17 12.3123V2.6877C17 1.75912 16.2037 1 15.2296 1ZM1.77039 2.02346H15.2296C15.6136 2.02346 15.9264 2.32169 15.9264 2.6877V3.50104L8.58887 6.19864L1.07361 3.5756V2.6877C1.07361 2.32169 1.38645 2.02346 1.77039 2.02346ZM15.2296 12.9698H1.77039C1.38645 12.9698 1.07361 12.6715 1.07361 12.3055V4.67362L8.59599 7.29666L15.9193 4.60584V12.3123C15.9264 12.6715 15.6136 12.9698 15.2296 12.9698Z" fill="#003399"/>
</svg>
