<svg width="85" height="15" viewBox="0 0 85 15" fill="none" xmlns="http://www.w3.org/2000/svg">
<path d="M30.8804 4.53564V5.58154H30.7573C30.1831 5.59033 29.7202 5.73975 29.3687 6.02979C29.02 6.31982 28.8105 6.72266 28.7402 7.23828C29.0801 6.89258 29.5093 6.71973 30.0278 6.71973C30.5845 6.71973 31.0269 6.91895 31.355 7.31738C31.6831 7.71582 31.8472 8.24023 31.8472 8.89062C31.8472 9.30664 31.7563 9.68311 31.5747 10.02C31.396 10.3569 31.1411 10.6191 30.8101 10.8066C30.4819 10.9941 30.1099 11.0879 29.6938 11.0879C29.02 11.0879 28.4751 10.8535 28.0591 10.3848C27.646 9.91602 27.4395 9.29053 27.4395 8.5083V8.05127C27.4395 7.35693 27.5698 6.74463 27.8306 6.21436C28.0942 5.68115 28.4707 5.26953 28.96 4.97949C29.4521 4.68652 30.022 4.53857 30.6694 4.53564H30.8804ZM29.6411 7.73926C29.436 7.73926 29.25 7.79346 29.083 7.90186C28.916 8.00732 28.793 8.14795 28.7139 8.32373V8.71045C28.7139 9.13525 28.7974 9.46777 28.9644 9.70801C29.1313 9.94531 29.3657 10.064 29.6675 10.064C29.9399 10.064 30.1597 9.95703 30.3267 9.74316C30.4966 9.52637 30.5815 9.24658 30.5815 8.90381C30.5815 8.55518 30.4966 8.27393 30.3267 8.06006C30.1567 7.84619 29.9282 7.73926 29.6411 7.73926ZM36.9097 8.35449C36.9097 9.23926 36.7266 9.91602 36.3604 10.3848C35.9941 10.8535 35.458 11.0879 34.752 11.0879C34.0547 11.0879 33.5215 10.8579 33.1523 10.3979C32.7832 9.93799 32.5942 9.27881 32.5854 8.42041V7.24268C32.5854 6.34912 32.77 5.6709 33.1392 5.20801C33.5112 4.74512 34.0459 4.51367 34.7432 4.51367C35.4404 4.51367 35.9736 4.74365 36.3428 5.20361C36.7119 5.66064 36.9009 6.31836 36.9097 7.17676V8.35449ZM35.6396 7.0625C35.6396 6.53223 35.5664 6.14697 35.4199 5.90674C35.2764 5.66357 35.0508 5.54199 34.7432 5.54199C34.4443 5.54199 34.2231 5.65771 34.0796 5.88916C33.939 6.11768 33.8643 6.47656 33.8555 6.96582V8.52148C33.8555 9.04297 33.9258 9.43115 34.0664 9.68604C34.21 9.93799 34.4385 10.064 34.752 10.064C35.0625 10.064 35.2866 9.94238 35.4243 9.69922C35.562 9.45605 35.6338 9.08398 35.6396 8.58301V7.0625ZM42.0776 8.35449C42.0776 9.23926 41.8945 9.91602 41.5283 10.3848C41.1621 10.8535 40.626 11.0879 39.9199 11.0879C39.2227 11.0879 38.6895 10.8579 38.3203 10.3979C37.9512 9.93799 37.7622 9.27881 37.7534 8.42041V7.24268C37.7534 6.34912 37.938 5.6709 38.3071 5.20801C38.6792 4.74512 39.2139 4.51367 39.9111 4.51367C40.6084 4.51367 41.1416 4.74365 41.5107 5.20361C41.8799 5.66064 42.0688 6.31836 42.0776 7.17676V8.35449ZM40.8076 7.0625C40.8076 6.53223 40.7344 6.14697 40.5879 5.90674C40.4443 5.66357 40.2188 5.54199 39.9111 5.54199C39.6123 5.54199 39.3911 5.65771 39.2476 5.88916C39.1069 6.11768 39.0322 6.47656 39.0234 6.96582V8.52148C39.0234 9.04297 39.0938 9.43115 39.2344 9.68604C39.3779 9.93799 39.6064 10.064 39.9199 10.064C40.2305 10.064 40.4546 9.94238 40.5923 9.69922C40.73 9.45605 40.8018 9.08398 40.8076 8.58301V7.0625ZM48.6255 4.53564V5.58154H48.5024C47.9282 5.59033 47.4653 5.73975 47.1138 6.02979C46.7651 6.31982 46.5557 6.72266 46.4854 7.23828C46.8252 6.89258 47.2544 6.71973 47.7729 6.71973C48.3296 6.71973 48.772 6.91895 49.1001 7.31738C49.4282 7.71582 49.5923 8.24023 49.5923 8.89062C49.5923 9.30664 49.5015 9.68311 49.3198 10.02C49.1411 10.3569 48.8862 10.6191 48.5552 10.8066C48.2271 10.9941 47.855 11.0879 47.439 11.0879C46.7651 11.0879 46.2202 10.8535 45.8042 10.3848C45.3911 9.91602 45.1846 9.29053 45.1846 8.5083V8.05127C45.1846 7.35693 45.3149 6.74463 45.5757 6.21436C45.8394 5.68115 46.2158 5.26953 46.7051 4.97949C47.1973 4.68652 47.7671 4.53857 48.4146 4.53564H48.6255ZM47.3862 7.73926C47.1812 7.73926 46.9951 7.79346 46.8281 7.90186C46.6611 8.00732 46.5381 8.14795 46.459 8.32373V8.71045C46.459 9.13525 46.5425 9.46777 46.7095 9.70801C46.8765 9.94531 47.1108 10.064 47.4126 10.064C47.6851 10.064 47.9048 9.95703 48.0718 9.74316C48.2417 9.52637 48.3267 9.24658 48.3267 8.90381C48.3267 8.55518 48.2417 8.27393 48.0718 8.06006C47.9019 7.84619 47.6733 7.73926 47.3862 7.73926ZM54.6548 8.35449C54.6548 9.23926 54.4717 9.91602 54.1055 10.3848C53.7393 10.8535 53.2031 11.0879 52.4971 11.0879C51.7998 11.0879 51.2666 10.8579 50.8975 10.3979C50.5283 9.93799 50.3394 9.27881 50.3306 8.42041V7.24268C50.3306 6.34912 50.5151 5.6709 50.8843 5.20801C51.2563 4.74512 51.791 4.51367 52.4883 4.51367C53.1855 4.51367 53.7188 4.74365 54.0879 5.20361C54.457 5.66064 54.646 6.31836 54.6548 7.17676V8.35449ZM53.3848 7.0625C53.3848 6.53223 53.3115 6.14697 53.165 5.90674C53.0215 5.66357 52.7959 5.54199 52.4883 5.54199C52.1895 5.54199 51.9683 5.65771 51.8247 5.88916C51.6841 6.11768 51.6094 6.47656 51.6006 6.96582V8.52148C51.6006 9.04297 51.6709 9.43115 51.8115 9.68604C51.9551 9.93799 52.1836 10.064 52.4971 10.064C52.8076 10.064 53.0317 9.94238 53.1694 9.69922C53.3071 9.45605 53.3789 9.08398 53.3848 8.58301V7.0625ZM59.8228 8.35449C59.8228 9.23926 59.6396 9.91602 59.2734 10.3848C58.9072 10.8535 58.3711 11.0879 57.665 11.0879C56.9678 11.0879 56.4346 10.8579 56.0654 10.3979C55.6963 9.93799 55.5073 9.27881 55.4985 8.42041V7.24268C55.4985 6.34912 55.6831 5.6709 56.0522 5.20801C56.4243 4.74512 56.959 4.51367 57.6562 4.51367C58.3535 4.51367 58.8867 4.74365 59.2559 5.20361C59.625 5.66064 59.814 6.31836 59.8228 7.17676V8.35449ZM58.5527 7.0625C58.5527 6.53223 58.4795 6.14697 58.333 5.90674C58.1895 5.66357 57.9639 5.54199 57.6562 5.54199C57.3574 5.54199 57.1362 5.65771 56.9927 5.88916C56.8521 6.11768 56.7773 6.47656 56.7686 6.96582V8.52148C56.7686 9.04297 56.8389 9.43115 56.9795 9.68604C57.123 9.93799 57.3516 10.064 57.665 10.064C57.9756 10.064 58.1997 9.94238 58.3374 9.69922C58.4751 9.45605 58.5469 9.08398 58.5527 8.58301V7.0625ZM64.9907 8.35449C64.9907 9.23926 64.8076 9.91602 64.4414 10.3848C64.0752 10.8535 63.5391 11.0879 62.833 11.0879C62.1357 11.0879 61.6025 10.8579 61.2334 10.3979C60.8643 9.93799 60.6753 9.27881 60.6665 8.42041V7.24268C60.6665 6.34912 60.8511 5.6709 61.2202 5.20801C61.5923 4.74512 62.127 4.51367 62.8242 4.51367C63.5215 4.51367 64.0547 4.74365 64.4238 5.20361C64.793 5.66064 64.9819 6.31836 64.9907 7.17676V8.35449ZM63.7207 7.0625C63.7207 6.53223 63.6475 6.14697 63.501 5.90674C63.3574 5.66357 63.1318 5.54199 62.8242 5.54199C62.5254 5.54199 62.3042 5.65771 62.1606 5.88916C62.02 6.11768 61.9453 6.47656 61.9365 6.96582V8.52148C61.9365 9.04297 62.0068 9.43115 62.1475 9.68604C62.291 9.93799 62.5195 10.064 62.833 10.064C63.1436 10.064 63.3677 9.94238 63.5054 9.69922C63.6431 9.45605 63.7148 9.08398 63.7207 8.58301V7.0625ZM71.1782 11H69.9082V6.10449L68.3921 6.57471V5.54199L71.042 4.59277H71.1782V11ZM76.3462 11H75.0762V6.10449L73.5601 6.57471V5.54199L76.21 4.59277H76.3462V11ZM78.6182 7.85352L78.9873 4.60156H82.5732V5.66064H80.0288L79.8706 7.03613C80.1724 6.875 80.4932 6.79443 80.833 6.79443C81.4424 6.79443 81.9199 6.9834 82.2656 7.36133C82.6113 7.73926 82.7842 8.26807 82.7842 8.94775C82.7842 9.36084 82.6963 9.73145 82.5205 10.0596C82.3477 10.3848 82.0986 10.6382 81.7734 10.8198C81.4482 10.9985 81.0645 11.0879 80.6221 11.0879C80.2354 11.0879 79.8765 11.0103 79.5454 10.855C79.2144 10.6968 78.9521 10.4756 78.7588 10.1914C78.5684 9.90723 78.4673 9.5835 78.4556 9.22021H79.7124C79.7388 9.48682 79.8311 9.69482 79.9893 9.84424C80.1504 9.99072 80.3599 10.064 80.6177 10.064C80.9048 10.064 81.126 9.96143 81.2812 9.75635C81.4365 9.54834 81.5142 9.25537 81.5142 8.87744C81.5142 8.51416 81.4248 8.23584 81.2461 8.04248C81.0674 7.84912 80.814 7.75244 80.4858 7.75244C80.1841 7.75244 79.9395 7.83154 79.752 7.98975L79.6289 8.104L78.6182 7.85352Z" fill="#003399"/>
<path d="M10.9597 15C10.1181 15 9.25787 14.8253 8.42877 14.4882C3.30457 12.3976 1.18507 8.34723 0.505583 6.70589C0.249996 6.0818 0.0879164 5.45771 0.031812 4.86483C-0.205073 2.46834 0.935716 0.970528 1.64014 0.290273C2.04534 -0.102901 2.69989 -0.0966603 3.09885 0.308996L6.26564 3.55425C6.36538 3.6541 6.41525 3.79764 6.40278 3.94118C6.32797 4.83987 5.65472 5.34538 5.16225 5.60125C6.25317 7.85421 8.35397 9.25216 9.2454 9.77015C9.90619 8.74041 10.9535 8.52198 11.0033 8.5095C11.1654 8.47829 11.3337 8.52822 11.4522 8.6468L14.6938 11.8671C15.0366 12.2103 15.099 12.747 14.8434 13.1465C14.2075 14.145 13.1291 14.7628 11.7327 14.9501C11.4771 14.9813 11.2153 15 10.9597 15ZM2.36326 0.995492C2.35079 0.995492 2.33833 1.00173 2.33209 1.00797C1.75858 1.56341 0.823508 2.79286 1.01676 4.77122C1.06663 5.27049 1.20377 5.79472 1.42195 6.33143C2.05157 7.86045 4.02146 11.6237 8.8028 13.5708C9.73164 13.9515 10.6979 14.0888 11.6018 13.964C12.7114 13.8205 13.5218 13.3587 14.0018 12.6097C14.008 12.6035 14.0018 12.5848 13.9893 12.5661L10.9659 9.55796C10.6729 9.68278 10.1805 9.98234 9.90619 10.6314C9.85632 10.7562 9.75034 10.8561 9.62567 10.906C9.50099 10.9559 9.35761 10.9497 9.23293 10.8935C9.07709 10.8186 5.46147 9.06493 4.03393 5.52636C3.99029 5.3953 3.99652 5.24552 4.05886 5.12071C4.1212 4.99589 4.23341 4.90227 4.37055 4.86483C4.37679 4.86483 5.17472 4.63392 5.3742 4.066L2.3882 1.00797C2.38196 0.995492 2.3695 0.995492 2.36326 0.995492Z" fill="#003399"/>
</svg>
