<svg width="107" height="15" viewBox="0 0 107 15" fill="none" xmlns="http://www.w3.org/2000/svg">
<path d="M30.0498 7.41846H31.6362V8.56543H30.0498V10.3584H28.8413V8.56543H27.2505V7.41846H28.8413V5.7002H30.0498V7.41846ZM32.5371 7.85352L32.9062 4.60156H36.4922V5.66064H33.9478L33.7896 7.03613C34.0913 6.875 34.4121 6.79443 34.752 6.79443C35.3613 6.79443 35.8389 6.9834 36.1846 7.36133C36.5303 7.73926 36.7031 8.26807 36.7031 8.94775C36.7031 9.36084 36.6152 9.73145 36.4395 10.0596C36.2666 10.3848 36.0176 10.6382 35.6924 10.8198C35.3672 10.9985 34.9834 11.0879 34.541 11.0879C34.1543 11.0879 33.7954 11.0103 33.4644 10.855C33.1333 10.6968 32.8711 10.4756 32.6777 10.1914C32.4873 9.90723 32.3862 9.5835 32.3745 9.22021H33.6313C33.6577 9.48682 33.75 9.69482 33.9082 9.84424C34.0693 9.99072 34.2788 10.064 34.5366 10.064C34.8237 10.064 35.0449 9.96143 35.2002 9.75635C35.3555 9.54834 35.4331 9.25537 35.4331 8.87744C35.4331 8.51416 35.3438 8.23584 35.165 8.04248C34.9863 7.84912 34.7329 7.75244 34.4048 7.75244C34.103 7.75244 33.8584 7.83154 33.6709 7.98975L33.5479 8.104L32.5371 7.85352ZM40.9614 4.53564V5.58154H40.8384C40.2642 5.59033 39.8013 5.73975 39.4497 6.02979C39.1011 6.31982 38.8916 6.72266 38.8213 7.23828C39.1611 6.89258 39.5903 6.71973 40.1089 6.71973C40.6655 6.71973 41.1079 6.91895 41.436 7.31738C41.7642 7.71582 41.9282 8.24023 41.9282 8.89062C41.9282 9.30664 41.8374 9.68311 41.6558 10.02C41.4771 10.3569 41.2222 10.6191 40.8911 10.8066C40.563 10.9941 40.1909 11.0879 39.7749 11.0879C39.1011 11.0879 38.5562 10.8535 38.1401 10.3848C37.7271 9.91602 37.5205 9.29053 37.5205 8.5083V8.05127C37.5205 7.35693 37.6509 6.74463 37.9116 6.21436C38.1753 5.68115 38.5518 5.26953 39.041 4.97949C39.5332 4.68652 40.103 4.53857 40.7505 4.53564H40.9614ZM39.7222 7.73926C39.5171 7.73926 39.3311 7.79346 39.1641 7.90186C38.9971 8.00732 38.874 8.14795 38.7949 8.32373V8.71045C38.7949 9.13525 38.8784 9.46777 39.0454 9.70801C39.2124 9.94531 39.4468 10.064 39.7485 10.064C40.021 10.064 40.2407 9.95703 40.4077 9.74316C40.5776 9.52637 40.6626 9.24658 40.6626 8.90381C40.6626 8.55518 40.5776 8.27393 40.4077 8.06006C40.2378 7.84619 40.0093 7.73926 39.7222 7.73926ZM45.6548 8.44238C45.3237 8.76758 44.937 8.93018 44.4946 8.93018C43.9292 8.93018 43.4766 8.73682 43.1367 8.3501C42.7969 7.96045 42.627 7.43604 42.627 6.77686C42.627 6.35791 42.7178 5.97412 42.8994 5.62549C43.084 5.27393 43.3403 5.00146 43.6685 4.80811C43.9966 4.61182 44.3657 4.51367 44.7759 4.51367C45.1978 4.51367 45.5728 4.61914 45.9009 4.83008C46.229 5.04102 46.4839 5.34424 46.6655 5.73975C46.8472 6.13525 46.9395 6.58789 46.9424 7.09766V7.56787C46.9424 8.63428 46.6772 9.47217 46.147 10.0815C45.6167 10.6909 44.8652 11.0161 43.8926 11.0571L43.5806 11.0615V10.0024L43.8618 9.99805C44.9663 9.94824 45.564 9.42969 45.6548 8.44238ZM44.8066 7.95898C45.0117 7.95898 45.1875 7.90625 45.334 7.80078C45.4834 7.69531 45.5962 7.56787 45.6724 7.41846V6.89551C45.6724 6.46484 45.5903 6.13086 45.4263 5.89355C45.2622 5.65625 45.0425 5.5376 44.7671 5.5376C44.5122 5.5376 44.3027 5.65479 44.1387 5.88916C43.9746 6.12061 43.8926 6.41211 43.8926 6.76367C43.8926 7.1123 43.9717 7.39941 44.1299 7.625C44.291 7.84766 44.5166 7.95898 44.8066 7.95898ZM51.3853 7.23828H52.062C52.3843 7.23828 52.623 7.15771 52.7783 6.99658C52.9336 6.83545 53.0112 6.62158 53.0112 6.35498C53.0112 6.09717 52.9336 5.89648 52.7783 5.75293C52.626 5.60938 52.415 5.5376 52.1455 5.5376C51.9023 5.5376 51.6987 5.60498 51.5347 5.73975C51.3706 5.87158 51.2886 6.04443 51.2886 6.2583H50.0186C50.0186 5.92432 50.1079 5.62549 50.2866 5.36182C50.4683 5.09521 50.7202 4.88721 51.0425 4.73779C51.3677 4.58838 51.7251 4.51367 52.1147 4.51367C52.7915 4.51367 53.3218 4.67627 53.7056 5.00146C54.0894 5.32373 54.2812 5.76904 54.2812 6.3374C54.2812 6.63037 54.1919 6.8999 54.0132 7.146C53.8345 7.39209 53.6001 7.58105 53.3101 7.71289C53.6704 7.8418 53.9385 8.03516 54.1143 8.29297C54.293 8.55078 54.3823 8.85547 54.3823 9.20703C54.3823 9.77539 54.1743 10.231 53.7583 10.5737C53.3452 10.9165 52.7974 11.0879 52.1147 11.0879C51.4761 11.0879 50.9531 10.9194 50.5459 10.5825C50.1416 10.2456 49.9395 9.80029 49.9395 9.24658H51.2095C51.2095 9.48682 51.2988 9.68311 51.4775 9.83545C51.6592 9.98779 51.8818 10.064 52.1455 10.064C52.4473 10.064 52.6831 9.98486 52.853 9.82666C53.0259 9.66553 53.1123 9.45312 53.1123 9.18945C53.1123 8.55078 52.7607 8.23145 52.0576 8.23145H51.3853V7.23828ZM59.6118 5.31348L57.1377 11H55.7974L58.2759 5.62988H55.0942V4.60156H59.6118V5.31348ZM64.5996 6.30225C64.5996 6.61279 64.522 6.88818 64.3667 7.12842C64.2114 7.36865 63.9976 7.56055 63.7251 7.7041C64.0356 7.85352 64.2817 8.06006 64.4634 8.32373C64.645 8.58447 64.7358 8.89209 64.7358 9.24658C64.7358 9.81494 64.5425 10.2646 64.1558 10.5957C63.769 10.9238 63.2432 11.0879 62.5781 11.0879C61.9131 11.0879 61.3857 10.9224 60.9961 10.5913C60.6064 10.2603 60.4116 9.81201 60.4116 9.24658C60.4116 8.89209 60.5024 8.58301 60.6841 8.31934C60.8657 8.05566 61.1104 7.85059 61.418 7.7041C61.1455 7.56055 60.9316 7.36865 60.7764 7.12842C60.624 6.88818 60.5479 6.61279 60.5479 6.30225C60.5479 5.75732 60.7295 5.32373 61.0928 5.00146C61.4561 4.67627 61.9497 4.51367 62.5737 4.51367C63.1948 4.51367 63.687 4.6748 64.0503 4.99707C64.4165 5.31641 64.5996 5.75146 64.5996 6.30225ZM63.4614 9.1543C63.4614 8.87598 63.3809 8.65332 63.2197 8.48633C63.0586 8.31934 62.8418 8.23584 62.5693 8.23584C62.2998 8.23584 62.0845 8.31934 61.9233 8.48633C61.7622 8.65039 61.6816 8.87305 61.6816 9.1543C61.6816 9.42676 61.7607 9.64648 61.9189 9.81348C62.0771 9.98047 62.2969 10.064 62.5781 10.064C62.8535 10.064 63.0688 9.9834 63.2241 9.82227C63.3823 9.66113 63.4614 9.43848 63.4614 9.1543ZM63.3296 6.36377C63.3296 6.11475 63.2637 5.91553 63.1318 5.76611C63 5.61377 62.814 5.5376 62.5737 5.5376C62.3364 5.5376 62.1519 5.61084 62.02 5.75732C61.8882 5.90381 61.8223 6.10596 61.8223 6.36377C61.8223 6.61865 61.8882 6.82373 62.02 6.979C62.1519 7.13428 62.3379 7.21191 62.5781 7.21191C62.8184 7.21191 63.0029 7.13428 63.1318 6.979C63.2637 6.82373 63.3296 6.61865 63.3296 6.36377ZM66.8892 7.23828H67.5659C67.8882 7.23828 68.127 7.15771 68.2822 6.99658C68.4375 6.83545 68.5151 6.62158 68.5151 6.35498C68.5151 6.09717 68.4375 5.89648 68.2822 5.75293C68.1299 5.60938 67.9189 5.5376 67.6494 5.5376C67.4062 5.5376 67.2026 5.60498 67.0386 5.73975C66.8745 5.87158 66.7925 6.04443 66.7925 6.2583H65.5225C65.5225 5.92432 65.6118 5.62549 65.7905 5.36182C65.9722 5.09521 66.2241 4.88721 66.5464 4.73779C66.8716 4.58838 67.229 4.51367 67.6187 4.51367C68.2954 4.51367 68.8257 4.67627 69.2095 5.00146C69.5933 5.32373 69.7852 5.76904 69.7852 6.3374C69.7852 6.63037 69.6958 6.8999 69.5171 7.146C69.3384 7.39209 69.104 7.58105 68.814 7.71289C69.1743 7.8418 69.4424 8.03516 69.6182 8.29297C69.7969 8.55078 69.8862 8.85547 69.8862 9.20703C69.8862 9.77539 69.6782 10.231 69.2622 10.5737C68.8491 10.9165 68.3013 11.0879 67.6187 11.0879C66.98 11.0879 66.457 10.9194 66.0498 10.5825C65.6455 10.2456 65.4434 9.80029 65.4434 9.24658H66.7134C66.7134 9.48682 66.8027 9.68311 66.9814 9.83545C67.1631 9.98779 67.3857 10.064 67.6494 10.064C67.9512 10.064 68.187 9.98486 68.3569 9.82666C68.5298 9.66553 68.6162 9.45312 68.6162 9.18945C68.6162 8.55078 68.2646 8.23145 67.5615 8.23145H66.8892V7.23828ZM76.0913 11H74.8213V6.10449L73.3052 6.57471V5.54199L75.9551 4.59277H76.0913V11ZM79.4663 7.23828H80.1431C80.4653 7.23828 80.7041 7.15771 80.8594 6.99658C81.0146 6.83545 81.0923 6.62158 81.0923 6.35498C81.0923 6.09717 81.0146 5.89648 80.8594 5.75293C80.707 5.60938 80.4961 5.5376 80.2266 5.5376C79.9834 5.5376 79.7798 5.60498 79.6157 5.73975C79.4517 5.87158 79.3696 6.04443 79.3696 6.2583H78.0996C78.0996 5.92432 78.189 5.62549 78.3677 5.36182C78.5493 5.09521 78.8013 4.88721 79.1235 4.73779C79.4487 4.58838 79.8062 4.51367 80.1958 4.51367C80.8726 4.51367 81.4028 4.67627 81.7866 5.00146C82.1704 5.32373 82.3623 5.76904 82.3623 6.3374C82.3623 6.63037 82.2729 6.8999 82.0942 7.146C81.9155 7.39209 81.6812 7.58105 81.3911 7.71289C81.7515 7.8418 82.0195 8.03516 82.1953 8.29297C82.374 8.55078 82.4634 8.85547 82.4634 9.20703C82.4634 9.77539 82.2554 10.231 81.8394 10.5737C81.4263 10.9165 80.8784 11.0879 80.1958 11.0879C79.5571 11.0879 79.0342 10.9194 78.627 10.5825C78.2227 10.2456 78.0205 9.80029 78.0205 9.24658H79.2905C79.2905 9.48682 79.3799 9.68311 79.5586 9.83545C79.7402 9.98779 79.9629 10.064 80.2266 10.064C80.5283 10.064 80.7642 9.98486 80.9341 9.82666C81.1069 9.66553 81.1934 9.45312 81.1934 9.18945C81.1934 8.55078 80.8418 8.23145 80.1387 8.23145H79.4663V7.23828ZM84.6343 7.23828H85.311C85.6333 7.23828 85.8721 7.15771 86.0273 6.99658C86.1826 6.83545 86.2603 6.62158 86.2603 6.35498C86.2603 6.09717 86.1826 5.89648 86.0273 5.75293C85.875 5.60938 85.6641 5.5376 85.3945 5.5376C85.1514 5.5376 84.9478 5.60498 84.7837 5.73975C84.6196 5.87158 84.5376 6.04443 84.5376 6.2583H83.2676C83.2676 5.92432 83.3569 5.62549 83.5356 5.36182C83.7173 5.09521 83.9692 4.88721 84.2915 4.73779C84.6167 4.58838 84.9741 4.51367 85.3638 4.51367C86.0405 4.51367 86.5708 4.67627 86.9546 5.00146C87.3384 5.32373 87.5303 5.76904 87.5303 6.3374C87.5303 6.63037 87.4409 6.8999 87.2622 7.146C87.0835 7.39209 86.8491 7.58105 86.5591 7.71289C86.9194 7.8418 87.1875 8.03516 87.3633 8.29297C87.542 8.55078 87.6313 8.85547 87.6313 9.20703C87.6313 9.77539 87.4233 10.231 87.0073 10.5737C86.5942 10.9165 86.0464 11.0879 85.3638 11.0879C84.7251 11.0879 84.2021 10.9194 83.7949 10.5825C83.3906 10.2456 83.1885 9.80029 83.1885 9.24658H84.4585C84.4585 9.48682 84.5479 9.68311 84.7266 9.83545C84.9082 9.98779 85.1309 10.064 85.3945 10.064C85.6963 10.064 85.9321 9.98486 86.1021 9.82666C86.2749 9.66553 86.3613 9.45312 86.3613 9.18945C86.3613 8.55078 86.0098 8.23145 85.3066 8.23145H84.6343V7.23828ZM88.6992 7.85352L89.0684 4.60156H92.6543V5.66064H90.1099L89.9517 7.03613C90.2534 6.875 90.5742 6.79443 90.9141 6.79443C91.5234 6.79443 92.001 6.9834 92.3467 7.36133C92.6924 7.73926 92.8652 8.26807 92.8652 8.94775C92.8652 9.36084 92.7773 9.73145 92.6016 10.0596C92.4287 10.3848 92.1797 10.6382 91.8545 10.8198C91.5293 10.9985 91.1455 11.0879 90.7031 11.0879C90.3164 11.0879 89.9575 11.0103 89.6265 10.855C89.2954 10.6968 89.0332 10.4756 88.8398 10.1914C88.6494 9.90723 88.5483 9.5835 88.5366 9.22021H89.7935C89.8198 9.48682 89.9121 9.69482 90.0703 9.84424C90.2314 9.99072 90.4409 10.064 90.6987 10.064C90.9858 10.064 91.207 9.96143 91.3623 9.75635C91.5176 9.54834 91.5952 9.25537 91.5952 8.87744C91.5952 8.51416 91.5059 8.23584 91.3271 8.04248C91.1484 7.84912 90.895 7.75244 90.5669 7.75244C90.2651 7.75244 90.0205 7.83154 89.833 7.98975L89.71 8.104L88.6992 7.85352Z" fill="#003399"/>
<g clip-path="url(#clip0)">
<path d="M7.60095 0C3.52377 0 0.20791 3.36097 0.20791 7.5C0.20791 8.75 0.516215 9.98087 1.10766 11.0778L0.0317354 14.3686C-0.0248922 14.5408 0.0191515 14.7258 0.14499 14.8533C0.233078 14.9426 0.352625 14.9936 0.478464 14.9936C0.528799 14.9936 0.579135 14.9872 0.623178 14.9681L3.79432 13.9158C4.94575 14.6173 6.26076 14.9936 7.61353 14.9936C11.6907 14.9936 15.0129 11.6327 15.0129 7.49362C15.0003 3.36097 11.6844 0 7.60095 0ZM7.60095 14.0434C6.35514 14.0434 5.1408 13.6798 4.09633 12.9974C4.02083 12.9464 3.93274 12.9209 3.84465 12.9209C3.77544 12.9209 3.70623 12.9337 3.64331 12.9656L1.20833 13.7755L2.03257 11.25C2.10179 11.1097 2.10179 10.9375 2.01999 10.7972C1.44742 9.8023 1.13912 8.66071 1.13912 7.50638C1.14541 3.89031 4.046 0.956633 7.60095 0.956633C11.1622 0.956633 14.0565 3.89031 14.0565 7.5C14.0565 11.1097 11.1622 14.0434 7.60095 14.0434Z" fill="#003399"/>
<path d="M5.16569 8.1378C5.55488 8.1378 5.87039 7.818 5.87039 7.42351C5.87039 7.02902 5.55488 6.70923 5.16569 6.70923C4.77649 6.70923 4.46099 7.02902 4.46099 7.42351C4.46099 7.818 4.77649 8.1378 5.16569 8.1378Z" fill="#003399"/>
<path d="M7.7328 6.70923C7.3427 6.70923 7.0281 7.02811 7.0281 7.42351C7.0281 7.81892 7.3427 8.1378 7.7328 8.1378C8.1229 8.1378 8.4375 7.81892 8.4375 7.42351C8.4375 7.02811 8.11661 6.70923 7.7328 6.70923Z" fill="#003399"/>
<path d="M10.2936 8.1378C10.6828 8.1378 10.9983 7.818 10.9983 7.42351C10.9983 7.02902 10.6828 6.70923 10.2936 6.70923C9.90442 6.70923 9.58891 7.02902 9.58891 7.42351C9.58891 7.818 9.90442 8.1378 10.2936 8.1378Z" fill="#003399"/>
</g>
<defs>
<clipPath id="clip0">
<rect width="15" height="15" fill="white"/>
</clipPath>
</defs>
</svg>
