<svg width="385" height="51" viewBox="0 0 385 51" fill="none" xmlns="http://www.w3.org/2000/svg">
<path d="M3.84547 26H1.15547V33H2.66547V30.82H3.84547C5.25547 30.82 6.31547 29.79 6.31547 28.41C6.31547 27.03 5.24547 26 3.84547 26ZM3.77547 29.42H2.66547V27.41H3.77547C4.37547 27.41 4.78547 27.83 4.78547 28.41C4.78547 28.99 4.37547 29.42 3.77547 29.42ZM11.3262 33H13.0162L11.4662 30.36C12.2462 29.98 12.7462 29.24 12.7462 28.32C12.7462 26.97 11.6962 26 10.2962 26H7.47617V33H8.98617V30.62H9.95617L11.3262 33ZM8.98617 27.4H10.1962C10.8362 27.4 11.2062 27.79 11.2062 28.31C11.2062 28.84 10.8362 29.22 10.1962 29.22H8.98617V27.4ZM15.6975 31.6V30.16H18.1275V28.79H15.6975V27.4H18.3875V26H14.1875V33H18.4975V31.6H15.6975ZM22.5634 26H19.8734V33H21.3834V30.82H22.5634C23.9734 30.82 25.0334 29.79 25.0334 28.41C25.0334 27.03 23.9634 26 22.5634 26ZM22.4934 29.42H21.3834V27.41H22.4934C23.0934 27.41 23.5034 27.83 23.5034 28.41C23.5034 28.99 23.0934 29.42 22.4934 29.42ZM30.2873 33H31.9373L29.1073 26H27.6773L24.9273 33H26.5373L27.0173 31.68H29.7973L30.2873 33ZM28.4073 27.85L29.3273 30.36H27.4873L28.4073 27.85ZM36.775 33H38.465L36.915 30.36C37.695 29.98 38.195 29.24 38.195 28.32C38.195 26.97 37.145 26 35.745 26H32.925V33H34.435V30.62H35.405L36.775 33ZM34.435 27.4H35.645C36.285 27.4 36.655 27.79 36.655 28.31C36.655 28.84 36.285 29.22 35.645 29.22H34.435V27.4ZM44.2177 33H45.8677L43.0377 26H41.6077L38.8577 33H40.4677L40.9477 31.68H43.7277L44.2177 33ZM42.3377 27.85L43.2577 30.36H41.4177L42.3377 27.85ZM49.7725 33.16C51.5025 33.16 52.8625 32 53.1825 30.27H51.6525C51.4025 31.15 50.6925 31.71 49.7725 31.71C48.5825 31.71 47.6925 30.77 47.6925 29.51C47.6925 28.25 48.5825 27.3 49.7725 27.3C50.6525 27.3 51.3525 27.82 51.6425 28.64H53.1525C52.8325 26.98 51.4725 25.85 49.7725 25.85C47.7125 25.85 46.1525 27.43 46.1525 29.51C46.1525 31.58 47.7125 33.16 49.7725 33.16ZM54.3773 33H55.8873V26H54.3773V33ZM60.3126 25.33H61.4226L62.4226 23.91H60.8726L60.3126 25.33ZM60.9126 33.16C63.0426 33.16 64.6326 31.59 64.6326 29.5C64.6326 27.42 63.0426 25.85 60.9126 25.85C58.7726 25.85 57.1726 27.43 57.1726 29.5C57.1726 31.58 58.7726 33.16 60.9126 33.16ZM60.9126 31.73C59.6626 31.73 58.7126 30.77 58.7126 29.51C58.7126 28.25 59.6626 27.28 60.9126 27.28C62.1626 27.28 63.0926 28.24 63.0926 29.51C63.0926 30.78 62.1626 31.73 60.9126 31.73ZM70.355 26V30.27L67.285 26H65.925V33H67.405V28.63L70.575 33H71.845V26H70.355Z" fill="#212121"/>
<path d="M101.981 26H99.291V33H100.801V30.82H101.981C103.391 30.82 104.451 29.79 104.451 28.41C104.451 27.03 103.381 26 101.981 26ZM101.911 29.42H100.801V27.41H101.911C102.511 27.41 102.921 27.83 102.921 28.41C102.921 28.99 102.511 29.42 101.911 29.42ZM109.462 33H111.152L109.602 30.36C110.382 29.98 110.882 29.24 110.882 28.32C110.882 26.97 109.832 26 108.432 26H105.612V33H107.122V30.62H108.092L109.462 33ZM107.122 27.4H108.332C108.972 27.4 109.342 27.79 109.342 28.31C109.342 28.84 108.972 29.22 108.332 29.22H107.122V27.4ZM115.584 33.16C117.714 33.16 119.304 31.59 119.304 29.5C119.304 27.42 117.714 25.85 115.584 25.85C113.444 25.85 111.844 27.43 111.844 29.5C111.844 31.58 113.444 33.16 115.584 33.16ZM115.584 31.73C114.334 31.73 113.384 30.76 113.384 29.5C113.384 28.24 114.334 27.28 115.584 27.28C116.834 27.28 117.764 28.23 117.764 29.5C117.764 30.77 116.834 31.73 115.584 31.73ZM123.667 29.35V30.51H125.767C125.507 31.23 124.717 31.71 123.817 31.71C122.557 31.71 121.727 30.81 121.727 29.51C121.727 28.2 122.577 27.3 123.817 27.3C124.697 27.3 125.437 27.77 125.737 28.52H127.297C126.967 26.95 125.527 25.85 123.787 25.85C121.717 25.85 120.187 27.42 120.187 29.51C120.187 31.61 121.757 33.16 123.817 33.16C125.917 33.16 127.387 31.54 127.387 29.35H123.667ZM132.516 33H134.206L132.656 30.36C133.436 29.98 133.936 29.24 133.936 28.32C133.936 26.97 132.886 26 131.486 26H128.666V33H130.176V30.62H131.146L132.516 33ZM130.176 27.4H131.386C132.026 27.4 132.396 27.79 132.396 28.31C132.396 28.84 132.026 29.22 131.386 29.22H130.176V27.4ZM139.958 33H141.608L138.778 26H137.348L134.598 33H136.208L136.688 31.68H139.468L139.958 33ZM138.078 27.85L138.998 30.36H137.158L138.078 27.85ZM151.166 33L150.086 26H148.566L146.666 30.3L144.766 26H143.256L142.156 33H143.696L144.386 28.44L146.476 32.99H146.846L148.936 28.44L149.626 33H151.166ZM157.082 33H158.732L155.902 26H154.472L151.722 33H153.332L153.812 31.68H156.592L157.082 33ZM155.202 27.85L156.122 30.36H154.282L155.202 27.85ZM162.637 33.16C164.367 33.16 165.727 32 166.047 30.27H164.517C164.267 31.15 163.557 31.71 162.637 31.71C161.447 31.71 160.557 30.77 160.557 29.51C160.557 28.25 161.447 27.3 162.637 27.3C163.517 27.3 164.217 27.82 164.507 28.64H166.017C165.697 26.98 164.337 25.85 162.637 25.85C160.577 25.85 159.017 27.43 159.017 29.51C159.017 31.58 160.577 33.16 162.637 33.16ZM167.242 33H168.752V26H167.242V33ZM173.177 25.33H174.287L175.287 23.91H173.737L173.177 25.33ZM173.777 33.16C175.907 33.16 177.497 31.59 177.497 29.5C177.497 27.42 175.907 25.85 173.777 25.85C171.637 25.85 170.037 27.43 170.037 29.5C170.037 31.58 171.637 33.16 173.777 33.16ZM173.777 31.73C172.527 31.73 171.577 30.77 171.577 29.51C171.577 28.25 172.527 27.28 173.777 27.28C175.027 27.28 175.957 28.24 175.957 29.51C175.957 30.78 175.027 31.73 173.777 31.73ZM183.219 26V30.27L180.149 26H178.789V33H180.269V28.63L183.439 33H184.709V26H183.219ZM128.431 47H130.121L128.571 44.36C129.351 43.98 129.851 43.24 129.851 42.32C129.851 40.97 128.801 40 127.401 40H124.581V47H126.091V44.62H127.061L128.431 47ZM126.091 41.4H127.301C127.941 41.4 128.311 41.79 128.311 42.31C128.311 42.84 127.941 43.22 127.301 43.22H126.091V41.4ZM132.803 45.6V44.16H135.233V42.79H132.803V41.4H135.493V40H131.293V47H135.603V45.6H132.803ZM141.799 40H136.389V41.41H138.339V47H139.849V41.41H141.799V40ZM142.918 47H144.428V40H142.918V47ZM149.984 47H151.674L150.124 44.36C150.904 43.98 151.404 43.24 151.404 42.32C151.404 40.97 150.354 40 148.954 40H146.134V47H147.644V44.62H148.614L149.984 47ZM147.644 41.4H148.854C149.494 41.4 149.864 41.79 149.864 42.31C149.864 42.84 149.494 43.22 148.854 43.22H147.644V41.4ZM156.106 47.16C158.236 47.16 159.826 45.59 159.826 43.5C159.826 41.42 158.236 39.85 156.106 39.85C153.966 39.85 152.366 41.43 152.366 43.5C152.366 45.58 153.966 47.16 156.106 47.16ZM156.106 45.73C154.856 45.73 153.906 44.76 153.906 43.5C153.906 42.24 154.856 41.28 156.106 41.28C157.356 41.28 158.286 42.23 158.286 43.5C158.286 44.77 157.356 45.73 156.106 45.73Z" fill="#212121"/>
<path d="M221.844 26H219.154V33H220.664V30.82H221.844C223.254 30.82 224.314 29.79 224.314 28.41C224.314 27.03 223.244 26 221.844 26ZM221.774 29.42H220.664V27.41H221.774C222.374 27.41 222.784 27.83 222.784 28.41C222.784 28.99 222.374 29.42 221.774 29.42ZM229.325 33H231.015L229.465 30.36C230.245 29.98 230.745 29.24 230.745 28.32C230.745 26.97 229.695 26 228.295 26H225.475V33H226.985V30.62H227.955L229.325 33ZM226.985 27.4H228.195C228.835 27.4 229.205 27.79 229.205 28.31C229.205 28.84 228.835 29.22 228.195 29.22H226.985V27.4ZM235.447 33.16C237.577 33.16 239.167 31.59 239.167 29.5C239.167 27.42 237.577 25.85 235.447 25.85C233.307 25.85 231.707 27.43 231.707 29.5C231.707 31.58 233.307 33.16 235.447 33.16ZM235.447 31.73C234.197 31.73 233.247 30.76 233.247 29.5C233.247 28.24 234.197 27.28 235.447 27.28C236.697 27.28 237.627 28.23 237.627 29.5C237.627 30.77 236.697 31.73 235.447 31.73ZM243.1 26H240.46V33H243.1C245.16 33 246.65 31.53 246.65 29.5C246.65 27.47 245.16 26 243.1 26ZM243.07 31.6H241.97V27.41H243.07C244.27 27.41 245.1 28.26 245.1 29.5C245.1 30.72 244.27 31.6 243.07 31.6ZM250.792 33.16C252.442 33.16 253.682 32.01 253.682 30.37V26H252.162V30.3C252.162 31.17 251.592 31.73 250.792 31.73C249.982 31.73 249.412 31.17 249.412 30.3V26H247.892V30.37C247.892 32.01 249.132 33.16 250.792 33.16ZM258.518 33.16C260.248 33.16 261.608 32 261.928 30.27H260.398C260.148 31.15 259.438 31.71 258.518 31.71C257.328 31.71 256.438 30.77 256.438 29.51C256.438 28.25 257.328 27.3 258.518 27.3C259.398 27.3 260.098 27.82 260.388 28.64H261.898C261.578 26.98 260.218 25.85 258.518 25.85C256.458 25.85 254.898 27.43 254.898 29.51C254.898 31.58 256.458 33.16 258.518 33.16ZM267.826 26H262.416V27.41H264.366V33H265.876V27.41H267.826V26ZM272.041 33.16C274.171 33.16 275.761 31.59 275.761 29.5C275.761 27.42 274.171 25.85 272.041 25.85C269.901 25.85 268.301 27.43 268.301 29.5C268.301 31.58 269.901 33.16 272.041 33.16ZM272.041 31.73C270.791 31.73 269.841 30.76 269.841 29.5C269.841 28.24 270.791 27.28 272.041 27.28C273.291 27.28 274.221 28.23 274.221 29.5C274.221 30.77 273.291 31.73 272.041 31.73ZM227.536 47H229.226L227.676 44.36C228.456 43.98 228.956 43.24 228.956 42.32C228.956 40.97 227.906 40 226.506 40H223.686V47H225.196V44.62H226.166L227.536 47ZM225.196 41.4H226.406C227.046 41.4 227.416 41.79 227.416 42.31C227.416 42.84 227.046 43.22 226.406 43.22H225.196V41.4ZM231.908 45.6V44.16H234.338V42.79H231.908V41.4H234.598V40H230.398V47H234.708V45.6H231.908ZM240.904 40H235.494V41.41H237.444V47H238.954V41.41H240.904V40ZM242.023 47H243.533V40H242.023V47ZM249.089 47H250.779L249.229 44.36C250.009 43.98 250.509 43.24 250.509 42.32C250.509 40.97 249.459 40 248.059 40H245.239V47H246.749V44.62H247.719L249.089 47ZM246.749 41.4H247.959C248.599 41.4 248.969 41.79 248.969 42.31C248.969 42.84 248.599 43.22 247.959 43.22H246.749V41.4ZM256.531 47H258.181L255.351 40H253.921L251.171 47H252.781L253.261 45.68H256.041L256.531 47ZM254.651 41.85L255.571 44.36H253.731L254.651 41.85ZM261.809 40H259.169V47H261.809C263.869 47 265.359 45.53 265.359 43.5C265.359 41.47 263.869 40 261.809 40ZM261.779 45.6H260.679V41.41H261.779C262.979 41.41 263.809 42.26 263.809 43.5C263.809 44.72 262.979 45.6 261.779 45.6ZM270.001 47.16C272.131 47.16 273.721 45.59 273.721 43.5C273.721 41.42 272.131 39.85 270.001 39.85C267.861 39.85 266.261 41.43 266.261 43.5C266.261 45.58 267.861 47.16 270.001 47.16ZM270.001 45.73C268.751 45.73 267.801 44.76 267.801 43.5C267.801 42.24 268.751 41.28 270.001 41.28C271.251 41.28 272.181 42.23 272.181 43.5C272.181 44.77 271.251 45.73 270.001 45.73Z" fill="#212121"/>
<path d="M324.643 31.6V30.16H327.073V28.79H324.643V27.4H327.333V26H323.133V33H327.443V31.6H324.643ZM333.249 26V30.27L330.179 26H328.819V33H330.299V28.63L333.469 33H334.739V26H333.249ZM341.259 26H335.849V27.41H337.799V33H339.309V27.41H341.259V26ZM346.229 33H347.919L346.369 30.36C347.149 29.98 347.649 29.24 347.649 28.32C347.649 26.97 346.599 26 345.199 26H342.379V33H343.889V30.62H344.859L346.229 33ZM343.889 27.4H345.099C345.739 27.4 346.109 27.79 346.109 28.31C346.109 28.84 345.739 29.22 345.099 29.22H343.889V27.4ZM350.6 31.6V30.16H353.03V28.79H350.6V27.4H353.29V26H349.09V33H353.4V31.6H350.6ZM357.739 29.35V30.51H359.839C359.579 31.23 358.789 31.71 357.889 31.71C356.629 31.71 355.799 30.81 355.799 29.51C355.799 28.2 356.649 27.3 357.889 27.3C358.769 27.3 359.509 27.77 359.809 28.52H361.369C361.039 26.95 359.599 25.85 357.859 25.85C355.789 25.85 354.259 27.42 354.259 29.51C354.259 31.61 355.829 33.16 357.889 33.16C359.989 33.16 361.459 31.54 361.459 29.35H357.739ZM367.084 33H368.734L365.904 26H364.474L361.724 33H363.334L363.814 31.68H366.594L367.084 33ZM365.204 27.85L366.124 30.36H364.284L365.204 27.85ZM372.362 26H369.722V33H372.362C374.422 33 375.912 31.53 375.912 29.5C375.912 27.47 374.422 26 372.362 26ZM372.332 31.6H371.232V27.41H372.332C373.532 27.41 374.362 28.26 374.362 29.5C374.362 30.72 373.532 31.6 372.332 31.6ZM380.554 33.16C382.684 33.16 384.274 31.59 384.274 29.5C384.274 27.42 382.684 25.85 380.554 25.85C378.414 25.85 376.814 27.43 376.814 29.5C376.814 31.58 378.414 33.16 380.554 33.16ZM380.554 31.73C379.304 31.73 378.354 30.76 378.354 29.5C378.354 28.24 379.304 27.28 380.554 27.28C381.804 27.28 382.734 28.23 382.734 29.5C382.734 30.77 381.804 31.73 380.554 31.73Z" fill="#212121"/>
<circle cx="248" cy="8" r="8" fill="#C6C6C6"/>
<circle cx="354" cy="8" r="8" fill="#C6C6C6"/>
<path d="M39.5 8.5H352.5" stroke="#C6C6C6" stroke-width="0.6"/>
<circle cx="142" cy="8" r="8" fill="#80E3F5"/>
<circle cx="36" cy="8" r="8" fill="#C6C6C6"/>
</svg>
