<svg width="89" height="42" viewBox="0 0 89 42" fill="none" xmlns="http://www.w3.org/2000/svg">
<path d="M3.84547 26H1.15547V33H2.66547V30.82H3.84547C5.25547 30.82 6.31547 29.79 6.31547 28.41C6.31547 27.03 5.24547 26 3.84547 26ZM3.77547 29.42H2.66547V27.41H3.77547C4.37547 27.41 4.78547 27.83 4.78547 28.41C4.78547 28.99 4.37547 29.42 3.77547 29.42ZM11.3262 33H13.0162L11.4662 30.36C12.2462 29.98 12.7462 29.24 12.7462 28.32C12.7462 26.97 11.6962 26 10.2962 26H7.47617V33H8.98617V30.62H9.95617L11.3262 33ZM8.98617 27.4H10.1962C10.8362 27.4 11.2062 27.79 11.2062 28.31C11.2062 28.84 10.8362 29.22 10.1962 29.22H8.98617V27.4ZM15.6975 31.6V30.16H18.1275V28.79H15.6975V27.4H18.3875V26H14.1875V33H18.4975V31.6H15.6975ZM22.5634 26H19.8734V33H21.3834V30.82H22.5634C23.9734 30.82 25.0334 29.79 25.0334 28.41C25.0334 27.03 23.9634 26 22.5634 26ZM22.4934 29.42H21.3834V27.41H22.4934C23.0934 27.41 23.5034 27.83 23.5034 28.41C23.5034 28.99 23.0934 29.42 22.4934 29.42ZM30.2873 33H31.9373L29.1073 26H27.6773L24.9273 33H26.5373L27.0173 31.68H29.7973L30.2873 33ZM28.4073 27.85L29.3273 30.36H27.4873L28.4073 27.85ZM36.775 33H38.465L36.915 30.36C37.695 29.98 38.195 29.24 38.195 28.32C38.195 26.97 37.145 26 35.745 26H32.925V33H34.435V30.62H35.405L36.775 33ZM34.435 27.4H35.645C36.285 27.4 36.655 27.79 36.655 28.31C36.655 28.84 36.285 29.22 35.645 29.22H34.435V27.4ZM44.2177 33H45.8677L43.0377 26H41.6077L38.8577 33H40.4677L40.9477 31.68H43.7277L44.2177 33ZM42.3377 27.85L43.2577 30.36H41.4177L42.3377 27.85ZM49.7725 33.16C51.5025 33.16 52.8625 32 53.1825 30.27H51.6525C51.4025 31.15 50.6925 31.71 49.7725 31.71C48.5825 31.71 47.6925 30.77 47.6925 29.51C47.6925 28.25 48.5825 27.3 49.7725 27.3C50.6525 27.3 51.3525 27.82 51.6425 28.64H53.1525C52.8325 26.98 51.4725 25.85 49.7725 25.85C47.7125 25.85 46.1525 27.43 46.1525 29.51C46.1525 31.58 47.7125 33.16 49.7725 33.16ZM54.3773 33H55.8873V26H54.3773V33ZM60.3126 25.33H61.4226L62.4226 23.91H60.8726L60.3126 25.33ZM60.9126 33.16C63.0426 33.16 64.6326 31.59 64.6326 29.5C64.6326 27.42 63.0426 25.85 60.9126 25.85C58.7726 25.85 57.1726 27.43 57.1726 29.5C57.1726 31.58 58.7726 33.16 60.9126 33.16ZM60.9126 31.73C59.6626 31.73 58.7126 30.77 58.7126 29.51C58.7126 28.25 59.6626 27.28 60.9126 27.28C62.1626 27.28 63.0926 28.24 63.0926 29.51C63.0926 30.78 62.1626 31.73 60.9126 31.73ZM70.355 26V30.27L67.285 26H65.925V33H67.405V28.63L70.575 33H71.845V26H70.355Z" fill="#212121"/>
<path d="M36 9L89 9" stroke="#C6C6C6" stroke-width="0.6"/>
<circle cx="36" cy="8" r="8" fill="#80E3F5"/>
</svg>
