<svg width="65" height="42" viewBox="0 0 65 42" fill="none" xmlns="http://www.w3.org/2000/svg">
<path d="M2.64183 27.1H0.758828V32H1.81583V30.474H2.64183C3.62883 30.474 4.37083 29.753 4.37083 28.787C4.37083 27.821 3.62183 27.1 2.64183 27.1ZM2.59283 29.494H1.81583V28.087H2.59283C3.01283 28.087 3.29983 28.381 3.29983 28.787C3.29983 29.193 3.01283 29.494 2.59283 29.494ZM7.87832 32H9.06132L7.97632 30.152C8.52232 29.886 8.87232 29.368 8.87232 28.724C8.87232 27.779 8.13732 27.1 7.15732 27.1H5.18332V32H6.24032V30.334H6.91932L7.87832 32ZM6.24032 28.08H7.08732C7.53532 28.08 7.79432 28.353 7.79432 28.717C7.79432 29.088 7.53532 29.354 7.08732 29.354H6.24032V28.08ZM10.9383 31.02V30.012H12.6393V29.053H10.9383V28.08H12.8212V27.1H9.88125V32H12.8983V31.02H10.9383ZM15.7444 27.1H13.8614V32H14.9184V30.474H15.7444C16.7314 30.474 17.4734 29.753 17.4734 28.787C17.4734 27.821 16.7244 27.1 15.7444 27.1ZM15.6954 29.494H14.9184V28.087H15.6954C16.1154 28.087 16.4024 28.381 16.4024 28.787C16.4024 29.193 16.1154 29.494 15.6954 29.494ZM21.1511 32H22.3061L20.3251 27.1H19.3241L17.3991 32H18.5261L18.8621 31.076H20.8081L21.1511 32ZM19.8351 28.395L20.4791 30.152H19.1911L19.8351 28.395ZM25.6925 32H26.8755L25.7905 30.152C26.3365 29.886 26.6865 29.368 26.6865 28.724C26.6865 27.779 25.9515 27.1 24.9715 27.1H22.9975V32H24.0545V30.334H24.7335L25.6925 32ZM24.0545 28.08H24.9015C25.3495 28.08 25.6085 28.353 25.6085 28.717C25.6085 29.088 25.3495 29.354 24.9015 29.354H24.0545V28.08ZM30.9024 32H32.0574L30.0764 27.1H29.0754L27.1504 32H28.2774L28.6134 31.076H30.5594L30.9024 32ZM29.5864 28.395L30.2304 30.152H28.9424L29.5864 28.395ZM34.7907 32.112C36.0017 32.112 36.9537 31.3 37.1777 30.089H36.1067C35.9317 30.705 35.4347 31.097 34.7907 31.097C33.9577 31.097 33.3347 30.439 33.3347 29.557C33.3347 28.675 33.9577 28.01 34.7907 28.01C35.4067 28.01 35.8967 28.374 36.0997 28.948H37.1567C36.9327 27.786 35.9807 26.995 34.7907 26.995C33.3487 26.995 32.2567 28.101 32.2567 29.557C32.2567 31.006 33.3487 32.112 34.7907 32.112ZM38.0141 32H39.0711V27.1H38.0141V32ZM42.1688 26.631H42.9458L43.6458 25.637H42.5608L42.1688 26.631ZM42.5888 32.112C44.0798 32.112 45.1928 31.013 45.1928 29.55C45.1928 28.094 44.0798 26.995 42.5888 26.995C41.0908 26.995 39.9708 28.101 39.9708 29.55C39.9708 31.006 41.0908 32.112 42.5888 32.112ZM42.5888 31.111C41.7138 31.111 41.0488 30.439 41.0488 29.557C41.0488 28.675 41.7138 27.996 42.5888 27.996C43.4638 27.996 44.1148 28.668 44.1148 29.557C44.1148 30.446 43.4638 31.111 42.5888 31.111ZM49.1985 27.1V30.089L47.0495 27.1H46.0975V32H47.1335V28.941L49.3525 32H50.2415V27.1H49.1985Z" fill="#212121"/>
<path d="M30 8H65" stroke="#C6C6C6" stroke-width="0.6"/>
<circle cx="26" cy="8" r="8" fill="#C6C6C6"/>
</svg>
