<svg width="106" height="51" viewBox="0 0 106 51" fill="none" xmlns="http://www.w3.org/2000/svg">
<path d="M27.5902 26H24.9002V33H26.4102V30.82H27.5902C29.0002 30.82 30.0602 29.79 30.0602 28.41C30.0602 27.03 28.9902 26 27.5902 26ZM27.5202 29.42H26.4102V27.41H27.5202C28.1202 27.41 28.5302 27.83 28.5302 28.41C28.5302 28.99 28.1202 29.42 27.5202 29.42ZM35.0709 33H36.7609L35.2109 30.36C35.9909 29.98 36.4909 29.24 36.4909 28.32C36.4909 26.97 35.4409 26 34.0409 26H31.2209V33H32.7309V30.62H33.7009L35.0709 33ZM32.7309 27.4H33.9409C34.5809 27.4 34.9509 27.79 34.9509 28.31C34.9509 28.84 34.5809 29.22 33.9409 29.22H32.7309V27.4ZM41.1936 33.16C43.3236 33.16 44.9136 31.59 44.9136 29.5C44.9136 27.42 43.3236 25.85 41.1936 25.85C39.0536 25.85 37.4536 27.43 37.4536 29.5C37.4536 31.58 39.0536 33.16 41.1936 33.16ZM41.1936 31.73C39.9436 31.73 38.9936 30.76 38.9936 29.5C38.9936 28.24 39.9436 27.28 41.1936 27.28C42.4436 27.28 43.3736 28.23 43.3736 29.5C43.3736 30.77 42.4436 31.73 41.1936 31.73ZM48.8461 26H46.2061V33H48.8461C50.9061 33 52.3961 31.53 52.3961 29.5C52.3961 27.47 50.9061 26 48.8461 26ZM48.8161 31.6H47.7161V27.41H48.8161C50.0161 27.41 50.8461 28.26 50.8461 29.5C50.8461 30.72 50.0161 31.6 48.8161 31.6ZM56.5382 33.16C58.1882 33.16 59.4282 32.01 59.4282 30.37V26H57.9082V30.3C57.9082 31.17 57.3382 31.73 56.5382 31.73C55.7282 31.73 55.1582 31.17 55.1582 30.3V26H53.6382V30.37C53.6382 32.01 54.8782 33.16 56.5382 33.16ZM64.2645 33.16C65.9945 33.16 67.3545 32 67.6745 30.27H66.1445C65.8945 31.15 65.1845 31.71 64.2645 31.71C63.0745 31.71 62.1845 30.77 62.1845 29.51C62.1845 28.25 63.0745 27.3 64.2645 27.3C65.1445 27.3 65.8445 27.82 66.1345 28.64H67.6445C67.3245 26.98 65.9645 25.85 64.2645 25.85C62.2045 25.85 60.6445 27.43 60.6445 29.51C60.6445 31.58 62.2045 33.16 64.2645 33.16ZM73.5721 26H68.1621V27.41H70.1121V33H71.6221V27.41H73.5721V26ZM77.7874 33.16C79.9174 33.16 81.5074 31.59 81.5074 29.5C81.5074 27.42 79.9174 25.85 77.7874 25.85C75.6474 25.85 74.0474 27.43 74.0474 29.5C74.0474 31.58 75.6474 33.16 77.7874 33.16ZM77.7874 31.73C76.5374 31.73 75.5874 30.76 75.5874 29.5C75.5874 28.24 76.5374 27.28 77.7874 27.28C79.0374 27.28 79.9674 28.23 79.9674 29.5C79.9674 30.77 79.0374 31.73 77.7874 31.73ZM32.0363 47H33.7263L32.1763 44.36C32.9563 43.98 33.4563 43.24 33.4563 42.32C33.4563 40.97 32.4063 40 31.0063 40H28.1863V47H29.6963V44.62H30.6663L32.0363 47ZM29.6963 41.4H30.9063C31.5463 41.4 31.9163 41.79 31.9163 42.31C31.9163 42.84 31.5463 43.22 30.9063 43.22H29.6963V41.4ZM36.4077 45.6V44.16H38.8377V42.79H36.4077V41.4H39.0977V40H34.8977V47H39.2077V45.6H36.4077ZM45.4036 40H39.9936V41.41H41.9436V47H43.4536V41.41H45.4036V40ZM46.5234 47H48.0334V40H46.5234V47ZM53.5887 47H55.2787L53.7287 44.36C54.5087 43.98 55.0087 43.24 55.0087 42.32C55.0087 40.97 53.9587 40 52.5587 40H49.7387V47H51.2487V44.62H52.2187L53.5887 47ZM51.2487 41.4H52.4587C53.0987 41.4 53.4687 41.79 53.4687 42.31C53.4687 42.84 53.0987 43.22 52.4587 43.22H51.2487V41.4ZM61.0314 47H62.6814L59.8514 40H58.4214L55.6714 47H57.2814L57.7614 45.68H60.5414L61.0314 47ZM59.1514 41.85L60.0714 44.36H58.2314L59.1514 41.85ZM66.3091 40H63.6691V47H66.3091C68.3691 47 69.8591 45.53 69.8591 43.5C69.8591 41.47 68.3691 40 66.3091 40ZM66.2791 45.6H65.1791V41.41H66.2791C67.4791 41.41 68.3091 42.26 68.3091 43.5C68.3091 44.72 67.4791 45.6 66.2791 45.6ZM74.5012 47.16C76.6312 47.16 78.2212 45.59 78.2212 43.5C78.2212 41.42 76.6312 39.85 74.5012 39.85C72.3612 39.85 70.7612 41.43 70.7612 43.5C70.7612 45.58 72.3612 47.16 74.5012 47.16ZM74.5012 45.73C73.2512 45.73 72.3012 44.76 72.3012 43.5C72.3012 42.24 73.2512 41.28 74.5012 41.28C75.7512 41.28 76.6812 42.23 76.6812 43.5C76.6812 44.77 75.7512 45.73 74.5012 45.73Z" fill="#212121"/>
<path d="M0 9L106 9.00001" stroke="#C6C6C6" stroke-width="0.6"/>
<circle cx="53" cy="8" r="8" fill="#C6C6C6"/>
</svg>
