<svg width="78" height="47" viewBox="0 0 78 47" fill="none" xmlns="http://www.w3.org/2000/svg">
<path d="M20.8407 27.1H18.9577V32H20.0147V30.474H20.8407C21.8277 30.474 22.5697 29.753 22.5697 28.787C22.5697 27.821 21.8207 27.1 20.8407 27.1ZM20.7917 29.494H20.0147V28.087H20.7917C21.2117 28.087 21.4987 28.381 21.4987 28.787C21.4987 29.193 21.2117 29.494 20.7917 29.494ZM26.0772 32H27.2602L26.1752 30.152C26.7212 29.886 27.0712 29.368 27.0712 28.724C27.0712 27.779 26.3362 27.1 25.3562 27.1H23.3822V32H24.4392V30.334H25.1182L26.0772 32ZM24.4392 28.08H25.2862C25.7342 28.08 25.9932 28.353 25.9932 28.717C25.9932 29.088 25.7342 29.354 25.2862 29.354H24.4392V28.08ZM30.3631 32.112C31.8541 32.112 32.9671 31.013 32.9671 29.55C32.9671 28.094 31.8541 26.995 30.3631 26.995C28.8651 26.995 27.7451 28.101 27.7451 29.55C27.7451 31.006 28.8651 32.112 30.3631 32.112ZM30.3631 31.111C29.4881 31.111 28.8231 30.432 28.8231 29.55C28.8231 28.668 29.4881 27.996 30.3631 27.996C31.2381 27.996 31.8891 28.661 31.8891 29.55C31.8891 30.439 31.2381 31.111 30.3631 31.111ZM35.7198 27.1H33.8718V32H35.7198C37.1618 32 38.2048 30.971 38.2048 29.55C38.2048 28.129 37.1618 27.1 35.7198 27.1ZM35.6988 31.02H34.9288V28.087H35.6988C36.5388 28.087 37.1198 28.682 37.1198 29.55C37.1198 30.404 36.5388 31.02 35.6988 31.02ZM41.1043 32.112C42.2593 32.112 43.1273 31.307 43.1273 30.159V27.1H42.0633V30.11C42.0633 30.719 41.6643 31.111 41.1043 31.111C40.5373 31.111 40.1383 30.719 40.1383 30.11V27.1H39.0743V30.159C39.0743 31.307 39.9423 32.112 41.1043 32.112ZM46.5127 32.112C47.7237 32.112 48.6757 31.3 48.8997 30.089H47.8287C47.6537 30.705 47.1567 31.097 46.5127 31.097C45.6797 31.097 45.0567 30.439 45.0567 29.557C45.0567 28.675 45.6797 28.01 46.5127 28.01C47.1287 28.01 47.6187 28.374 47.8217 28.948H48.8787C48.6547 27.786 47.7027 26.995 46.5127 26.995C45.0707 26.995 43.9787 28.101 43.9787 29.557C43.9787 31.006 45.0707 32.112 46.5127 32.112ZM53.0281 27.1H49.2411V28.087H50.6061V32H51.6631V28.087H53.0281V27.1ZM55.9788 32.112C57.4698 32.112 58.5828 31.013 58.5828 29.55C58.5828 28.094 57.4698 26.995 55.9788 26.995C54.4808 26.995 53.3608 28.101 53.3608 29.55C53.3608 31.006 54.4808 32.112 55.9788 32.112ZM55.9788 31.111C55.1038 31.111 54.4388 30.432 54.4388 29.55C54.4388 28.668 55.1038 27.996 55.9788 27.996C56.8538 27.996 57.5048 28.661 57.5048 29.55C57.5048 30.439 56.8538 31.111 55.9788 31.111ZM24.8254 43H26.0084L24.9234 41.152C25.4694 40.886 25.8194 40.368 25.8194 39.724C25.8194 38.779 25.0844 38.1 24.1044 38.1H22.1304V43H23.1874V41.334H23.8664L24.8254 43ZM23.1874 39.08H24.0344C24.4824 39.08 24.7414 39.353 24.7414 39.717C24.7414 40.088 24.4824 40.354 24.0344 40.354H23.1874V39.08ZM27.8854 42.02V41.012H29.5864V40.053H27.8854V39.08H29.7684V38.1H26.8284V43H29.8454V42.02H27.8854ZM34.1825 38.1H30.3955V39.087H31.7605V43H32.8175V39.087H34.1825V38.1ZM34.9664 43H36.0234V38.1H34.9664V43ZM39.9121 43H41.0951L40.0101 41.152C40.5561 40.886 40.9061 40.368 40.9061 39.724C40.9061 38.779 40.1711 38.1 39.1911 38.1H37.2171V43H38.2741V41.334H38.9531L39.9121 43ZM38.2741 39.08H39.1211C39.5691 39.08 39.8281 39.353 39.8281 39.717C39.8281 40.088 39.5691 40.354 39.1211 40.354H38.2741V39.08ZM45.122 43H46.277L44.296 38.1H43.295L41.37 43H42.497L42.833 42.076H44.779L45.122 43ZM43.806 39.395L44.45 41.152H43.162L43.806 39.395ZM48.8164 38.1H46.9684V43H48.8164C50.2584 43 51.3014 41.971 51.3014 40.55C51.3014 39.129 50.2584 38.1 48.8164 38.1ZM48.7954 42.02H48.0254V39.087H48.7954C49.6354 39.087 50.2164 39.682 50.2164 40.55C50.2164 41.404 49.6354 42.02 48.7954 42.02ZM54.5509 43.112C56.0419 43.112 57.1549 42.013 57.1549 40.55C57.1549 39.094 56.0419 37.995 54.5509 37.995C53.0529 37.995 51.9329 39.101 51.9329 40.55C51.9329 42.006 53.0529 43.112 54.5509 43.112ZM54.5509 42.111C53.6759 42.111 53.0109 41.432 53.0109 40.55C53.0109 39.668 53.6759 38.996 54.5509 38.996C55.4259 38.996 56.0769 39.661 56.0769 40.55C56.0769 41.439 55.4259 42.111 54.5509 42.111Z" fill="#212121"/>
<circle cx="39" cy="8" r="8" fill="#C6C6C6"/>
<path d="M0 8H78" stroke="#C6C6C6" stroke-width="0.6"/>
</svg>
