<svg width="78" height="47" viewBox="0 0 78 47" fill="none" xmlns="http://www.w3.org/2000/svg">
<path d="M11.4867 27.1H9.60371V32H10.6607V30.474H11.4867C12.4737 30.474 13.2157 29.753 13.2157 28.787C13.2157 27.821 12.4667 27.1 11.4867 27.1ZM11.4377 29.494H10.6607V28.087H11.4377C11.8577 28.087 12.1447 28.381 12.1447 28.787C12.1447 29.193 11.8577 29.494 11.4377 29.494ZM16.7232 32H17.9062L16.8212 30.152C17.3672 29.886 17.7172 29.368 17.7172 28.724C17.7172 27.779 16.9822 27.1 16.0022 27.1H14.0282V32H15.0852V30.334H15.7642L16.7232 32ZM15.0852 28.08H15.9322C16.3802 28.08 16.6392 28.353 16.6392 28.717C16.6392 29.088 16.3802 29.354 15.9322 29.354H15.0852V28.08ZM21.0091 32.112C22.5001 32.112 23.6131 31.013 23.6131 29.55C23.6131 28.094 22.5001 26.995 21.0091 26.995C19.5111 26.995 18.3911 28.101 18.3911 29.55C18.3911 31.006 19.5111 32.112 21.0091 32.112ZM21.0091 31.111C20.1341 31.111 19.4691 30.432 19.4691 29.55C19.4691 28.668 20.1341 27.996 21.0091 27.996C21.8841 27.996 22.5351 28.661 22.5351 29.55C22.5351 30.439 21.8841 31.111 21.0091 31.111ZM26.6668 29.445V30.257H28.1368C27.9548 30.761 27.4018 31.097 26.7718 31.097C25.8898 31.097 25.3088 30.467 25.3088 29.557C25.3088 28.64 25.9038 28.01 26.7718 28.01C27.3878 28.01 27.9058 28.339 28.1158 28.864H29.2078C28.9768 27.765 27.9688 26.995 26.7508 26.995C25.3018 26.995 24.2308 28.094 24.2308 29.557C24.2308 31.027 25.3298 32.112 26.7718 32.112C28.2418 32.112 29.2708 30.978 29.2708 29.445H26.6668ZM32.8609 32H34.0439L32.9589 30.152C33.5049 29.886 33.8549 29.368 33.8549 28.724C33.8549 27.779 33.1199 27.1 32.1399 27.1H30.1659V32H31.2229V30.334H31.9019L32.8609 32ZM31.2229 28.08H32.0699C32.5179 28.08 32.7769 28.353 32.7769 28.717C32.7769 29.088 32.5179 29.354 32.0699 29.354H31.2229V28.08ZM38.0709 32H39.2259L37.2449 27.1H36.2439L34.3189 32H35.4459L35.7819 31.076H37.7279L38.0709 32ZM36.7549 28.395L37.3989 30.152H36.1109L36.7549 28.395ZM45.9163 32L45.1603 27.1H44.0963L42.7663 30.11L41.4363 27.1H40.3793L39.6093 32H40.6873L41.1703 28.808L42.6333 31.993H42.8923L44.3553 28.808L44.8383 32H45.9163ZM50.0575 32H51.2125L49.2315 27.1H48.2305L46.3055 32H47.4325L47.7685 31.076H49.7145L50.0575 32ZM48.7415 28.395L49.3855 30.152H48.0975L48.7415 28.395ZM53.9459 32.112C55.1569 32.112 56.1089 31.3 56.3329 30.089H55.2619C55.0869 30.705 54.5899 31.097 53.9459 31.097C53.1129 31.097 52.4899 30.439 52.4899 29.557C52.4899 28.675 53.1129 28.01 53.9459 28.01C54.5619 28.01 55.0519 28.374 55.2549 28.948H56.3119C56.0879 27.786 55.1359 26.995 53.9459 26.995C52.5039 26.995 51.4119 28.101 51.4119 29.557C51.4119 31.006 52.5039 32.112 53.9459 32.112ZM57.1693 32H58.2263V27.1H57.1693V32ZM61.3239 26.631H62.1009L62.8009 25.637H61.7159L61.3239 26.631ZM61.7439 32.112C63.2349 32.112 64.3479 31.013 64.3479 29.55C64.3479 28.094 63.2349 26.995 61.7439 26.995C60.2459 26.995 59.1259 28.101 59.1259 29.55C59.1259 31.006 60.2459 32.112 61.7439 32.112ZM61.7439 31.111C60.8689 31.111 60.2039 30.439 60.2039 29.557C60.2039 28.675 60.8689 27.996 61.7439 27.996C62.6189 27.996 63.2699 28.668 63.2699 29.557C63.2699 30.446 62.6189 31.111 61.7439 31.111ZM68.3536 27.1V30.089L66.2046 27.1H65.2526V32H66.2886V28.941L68.5076 32H69.3966V27.1H68.3536ZM30.0019 43H31.1849L30.0999 41.152C30.6459 40.886 30.9959 40.368 30.9959 39.724C30.9959 38.779 30.2609 38.1 29.2809 38.1H27.3069V43H28.3639V41.334H29.0429L30.0019 43ZM28.3639 39.08H29.2109C29.6589 39.08 29.9179 39.353 29.9179 39.717C29.9179 40.088 29.6589 40.354 29.2109 40.354H28.3639V39.08ZM33.0618 42.02V41.012H34.7628V40.053H33.0618V39.08H34.9448V38.1H32.0048V43H35.0218V42.02H33.0618ZM39.359 38.1H35.572V39.087H36.937V43H37.994V39.087H39.359V38.1ZM40.1429 43H41.1999V38.1H40.1429V43ZM45.0885 43H46.2715L45.1865 41.152C45.7325 40.886 46.0825 40.368 46.0825 39.724C46.0825 38.779 45.3475 38.1 44.3675 38.1H42.3935V43H43.4505V41.334H44.1295L45.0885 43ZM43.4505 39.08H44.2975C44.7455 39.08 45.0045 39.353 45.0045 39.717C45.0045 40.088 44.7455 40.354 44.2975 40.354H43.4505V39.08ZM49.3744 43.112C50.8654 43.112 51.9784 42.013 51.9784 40.55C51.9784 39.094 50.8654 37.995 49.3744 37.995C47.8764 37.995 46.7564 39.101 46.7564 40.55C46.7564 42.006 47.8764 43.112 49.3744 43.112ZM49.3744 42.111C48.4994 42.111 47.8344 41.432 47.8344 40.55C47.8344 39.668 48.4994 38.996 49.3744 38.996C50.2494 38.996 50.9004 39.661 50.9004 40.55C50.9004 41.439 50.2494 42.111 49.3744 42.111Z" fill="#212121"/>
<path d="M0 8H78" stroke="#C6C6C6" stroke-width="0.6"/>
<circle cx="39" cy="8" r="8" fill="#80E3F5"/>
</svg>
