<svg width="106" height="51" viewBox="0 0 106 51" fill="none" xmlns="http://www.w3.org/2000/svg">
<path d="M12.981 26H10.291V33H11.801V30.82H12.981C14.391 30.82 15.451 29.79 15.451 28.41C15.451 27.03 14.381 26 12.981 26ZM12.911 29.42H11.801V27.41H12.911C13.511 27.41 13.921 27.83 13.921 28.41C13.921 28.99 13.511 29.42 12.911 29.42ZM20.4617 33H22.1517L20.6017 30.36C21.3817 29.98 21.8817 29.24 21.8817 28.32C21.8817 26.97 20.8317 26 19.4317 26H16.6117V33H18.1217V30.62H19.0917L20.4617 33ZM18.1217 27.4H19.3317C19.9717 27.4 20.3417 27.79 20.3417 28.31C20.3417 28.84 19.9717 29.22 19.3317 29.22H18.1217V27.4ZM26.5845 33.16C28.7145 33.16 30.3045 31.59 30.3045 29.5C30.3045 27.42 28.7145 25.85 26.5845 25.85C24.4445 25.85 22.8445 27.43 22.8445 29.5C22.8445 31.58 24.4445 33.16 26.5845 33.16ZM26.5845 31.73C25.3345 31.73 24.3845 30.76 24.3845 29.5C24.3845 28.24 25.3345 27.28 26.5845 27.28C27.8345 27.28 28.7645 28.23 28.7645 29.5C28.7645 30.77 27.8345 31.73 26.5845 31.73ZM34.6669 29.35V30.51H36.7669C36.5069 31.23 35.7169 31.71 34.8169 31.71C33.5569 31.71 32.7269 30.81 32.7269 29.51C32.7269 28.2 33.5769 27.3 34.8169 27.3C35.6969 27.3 36.4369 27.77 36.7369 28.52H38.2969C37.9669 26.95 36.5269 25.85 34.7869 25.85C32.7169 25.85 31.1869 27.42 31.1869 29.51C31.1869 31.61 32.7569 33.16 34.8169 33.16C36.9169 33.16 38.3869 31.54 38.3869 29.35H34.6669ZM43.5156 33H45.2056L43.6556 30.36C44.4356 29.98 44.9356 29.24 44.9356 28.32C44.9356 26.97 43.8856 26 42.4856 26H39.6656V33H41.1756V30.62H42.1456L43.5156 33ZM41.1756 27.4H42.3856C43.0256 27.4 43.3956 27.79 43.3956 28.31C43.3956 28.84 43.0256 29.22 42.3856 29.22H41.1756V27.4ZM50.9584 33H52.6084L49.7784 26H48.3484L45.5984 33H47.2084L47.6884 31.68H50.4684L50.9584 33ZM49.0784 27.85L49.9984 30.36H48.1584L49.0784 27.85ZM62.1661 33L61.0861 26H59.5661L57.6661 30.3L55.7661 26H54.2561L53.1561 33H54.6961L55.3861 28.44L57.4761 32.99H57.8461L59.9361 28.44L60.6261 33H62.1661ZM68.0822 33H69.7322L66.9022 26H65.4722L62.7222 33H64.3322L64.8122 31.68H67.5922L68.0822 33ZM66.2022 27.85L67.1222 30.36H65.2822L66.2022 27.85ZM73.637 33.16C75.367 33.16 76.727 32 77.047 30.27H75.517C75.267 31.15 74.557 31.71 73.637 31.71C72.447 31.71 71.557 30.77 71.557 29.51C71.557 28.25 72.447 27.3 73.637 27.3C74.517 27.3 75.217 27.82 75.507 28.64H77.017C76.697 26.98 75.337 25.85 73.637 25.85C71.577 25.85 70.017 27.43 70.017 29.51C70.017 31.58 71.577 33.16 73.637 33.16ZM78.2418 33H79.7518V26H78.2418V33ZM84.177 25.33H85.287L86.287 23.91H84.737L84.177 25.33ZM84.777 33.16C86.907 33.16 88.497 31.59 88.497 29.5C88.497 27.42 86.907 25.85 84.777 25.85C82.637 25.85 81.037 27.43 81.037 29.5C81.037 31.58 82.637 33.16 84.777 33.16ZM84.777 31.73C83.527 31.73 82.577 30.77 82.577 29.51C82.577 28.25 83.527 27.28 84.777 27.28C86.027 27.28 86.957 28.24 86.957 29.51C86.957 30.78 86.027 31.73 84.777 31.73ZM94.2195 26V30.27L91.1495 26H89.7895V33H91.2695V28.63L94.4395 33H95.7095V26H94.2195ZM39.4313 47H41.1213L39.5713 44.36C40.3513 43.98 40.8513 43.24 40.8513 42.32C40.8513 40.97 39.8013 40 38.4013 40H35.5813V47H37.0913V44.62H38.0613L39.4313 47ZM37.0913 41.4H38.3013C38.9413 41.4 39.3113 41.79 39.3113 42.31C39.3113 42.84 38.9413 43.22 38.3013 43.22H37.0913V41.4ZM43.8026 45.6V44.16H46.2326V42.79H43.8026V41.4H46.4926V40H42.2926V47H46.6026V45.6H43.8026ZM52.7985 40H47.3885V41.41H49.3385V47H50.8485V41.41H52.7985V40ZM53.9184 47H55.4284V40H53.9184V47ZM60.9836 47H62.6736L61.1236 44.36C61.9036 43.98 62.4036 43.24 62.4036 42.32C62.4036 40.97 61.3536 40 59.9536 40H57.1336V47H58.6436V44.62H59.6136L60.9836 47ZM58.6436 41.4H59.8536C60.4936 41.4 60.8636 41.79 60.8636 42.31C60.8636 42.84 60.4936 43.22 59.8536 43.22H58.6436V41.4ZM67.1063 47.16C69.2363 47.16 70.8263 45.59 70.8263 43.5C70.8263 41.42 69.2363 39.85 67.1063 39.85C64.9663 39.85 63.3663 41.43 63.3663 43.5C63.3663 45.58 64.9663 47.16 67.1063 47.16ZM67.1063 45.73C65.8563 45.73 64.9063 44.76 64.9063 43.5C64.9063 42.24 65.8563 41.28 67.1063 41.28C68.3563 41.28 69.2863 42.23 69.2863 43.5C69.2863 44.77 68.3563 45.73 67.1063 45.73Z" fill="#212121"/>
<path d="M0 9L106 9.00001" stroke="#C6C6C6" stroke-width="0.6"/>
<circle cx="53" cy="8" r="8" fill="#C6C6C6"/>
</svg>
