<svg width="78" height="36" viewBox="0 0 78 36" fill="none" xmlns="http://www.w3.org/2000/svg">
<path d="M29.5019 32H30.6849L29.5999 30.152C30.1459 29.886 30.4959 29.368 30.4959 28.724C30.4959 27.779 29.7609 27.1 28.7809 27.1H26.8069V32H27.8639V30.334H28.5429L29.5019 32ZM27.8639 28.08H28.7109C29.1589 28.08 29.4179 28.353 29.4179 28.717C29.4179 29.088 29.1589 29.354 28.7109 29.354H27.8639V28.08ZM32.5618 31.02V30.012H34.2628V29.053H32.5618V28.08H34.4448V27.1H31.5048V32H34.5218V31.02H32.5618ZM38.859 27.1H35.072V28.087H36.437V32H37.494V28.087H38.859V27.1ZM39.6429 32H40.6999V27.1H39.6429V32ZM44.5885 32H45.7715L44.6865 30.152C45.2325 29.886 45.5825 29.368 45.5825 28.724C45.5825 27.779 44.8475 27.1 43.8675 27.1H41.8935V32H42.9505V30.334H43.6295L44.5885 32ZM42.9505 28.08H43.7975C44.2455 28.08 44.5045 28.353 44.5045 28.717C44.5045 29.088 44.2455 29.354 43.7975 29.354H42.9505V28.08ZM48.8744 32.112C50.3654 32.112 51.4784 31.013 51.4784 29.55C51.4784 28.094 50.3654 26.995 48.8744 26.995C47.3764 26.995 46.2564 28.101 46.2564 29.55C46.2564 31.006 47.3764 32.112 48.8744 32.112ZM48.8744 31.111C47.9994 31.111 47.3344 30.432 47.3344 29.55C47.3344 28.668 47.9994 27.996 48.8744 27.996C49.7494 27.996 50.4004 28.661 50.4004 29.55C50.4004 30.439 49.7494 31.111 48.8744 31.111Z" fill="#212121"/>
<path d="M0 8H78" stroke="#C6C6C6" stroke-width="0.6"/>
<circle cx="39" cy="8" r="8" fill="#C6C6C6"/>
</svg>
