<svg width="106" height="42" viewBox="0 0 106 42" fill="none" xmlns="http://www.w3.org/2000/svg">
<path d="M39.9313 33H41.6213L40.0713 30.36C40.8513 29.98 41.3513 29.24 41.3513 28.32C41.3513 26.97 40.3013 26 38.9013 26H36.0813V33H37.5913V30.62H38.5613L39.9313 33ZM37.5913 27.4H38.8013C39.4413 27.4 39.8113 27.79 39.8113 28.31C39.8113 28.84 39.4413 29.22 38.8013 29.22H37.5913V27.4ZM44.3026 31.6V30.16H46.7326V28.79H44.3026V27.4H46.9926V26H42.7926V33H47.1026V31.6H44.3026ZM53.2985 26H47.8885V27.41H49.8385V33H51.3485V27.41H53.2985V26ZM54.4184 33H55.9284V26H54.4184V33ZM61.4836 33H63.1736L61.6236 30.36C62.4036 29.98 62.9036 29.24 62.9036 28.32C62.9036 26.97 61.8536 26 60.4536 26H57.6336V33H59.1436V30.62H60.1136L61.4836 33ZM59.1436 27.4H60.3536C60.9936 27.4 61.3636 27.79 61.3636 28.31C61.3636 28.84 60.9936 29.22 60.3536 29.22H59.1436V27.4ZM67.6063 33.16C69.7363 33.16 71.3263 31.59 71.3263 29.5C71.3263 27.42 69.7363 25.85 67.6063 25.85C65.4663 25.85 63.8663 27.43 63.8663 29.5C63.8663 31.58 65.4663 33.16 67.6063 33.16ZM67.6063 31.73C66.3563 31.73 65.4063 30.76 65.4063 29.5C65.4063 28.24 66.3563 27.28 67.6063 27.28C68.8563 27.28 69.7863 28.23 69.7863 29.5C69.7863 30.77 68.8563 31.73 67.6063 31.73Z" fill="#212121"/>
<circle cx="53" cy="8" r="8" fill="#C6C6C6"/>
<path d="M0 9L106 9.00001" stroke="#C6C6C6" stroke-width="0.6"/>
</svg>
